<mxfile host="65bd71144e">
    <diagram id="H89II1w8Mh3oQW4ke13J" name="Page-1">
        <mxGraphModel dx="760" dy="390" grid="1" gridSize="10" guides="1" tooltips="1" connect="1" arrows="1" fold="1" page="1" pageScale="1" pageWidth="827" pageHeight="1169" math="0" shadow="0">
            <root>
                <mxCell id="0"/>
                <mxCell id="1" parent="0"/>
                <mxCell id="2" value="" style="shape=image;verticalLabelPosition=bottom;labelBackgroundColor=default;verticalAlign=top;aspect=fixed;imageAspect=0;image=data:image/png,iVBORw0KGgoAAAANSUhEUgAAAZUAAAIICAYAAACmS3M7AAAAAXNSR0IArs4c6QAAIABJREFUeF7svQd8XMXVNn521WVJtiVLbnKVLDdcsAEb3EKvNiXUBAgkzhfACUkAk0AIX9oXSioQeJPQSUhIeSEETMBgCGDANsUd25LlKndbLpKsurv//3PlK+3VlntG0kor+Zn3px95fe/OnfvcM+eZMzPnGc+FP9gfEBYiEEME/L4aqd69SEb1WCkP/fo+SU5OjuHTwlddU1Mj999/v3gTkqWu9+myZM2BDm2D31cv+za8LJeeUSiB3DPlo9Ud+3y8bM3Rctm7YaHk5aRLSv55kpo7TTyexA7FgQ/r/gh4SCrd/yN39hs2k8oqeejXP+80UnnggQfE400iqZBUOrtLdOvnk1S69eeNj5cjqYgwUokPW2QrYo8ASSX2GB/3TyCpkFSO+05wHAFAUjmOPnZnvWp7k0ogEJDq6mpJSEiQlJQU1WthTYXTX1xTURkLb2oTAiSVNsHHH2sQaE9S8fl8smLFCvnnP/4hA/MHyte+NlfS0tJcm2FCKh6PSGKC17VOfyAgPp9un4vp9FeC1yNer6epDX5/QHx+3bMiNZwL9a6f9Li/AbafnOiRel9A/H4nHOgSiQkeqWsISCCKKZJUjnszij0A7UUqDQ0NsnTJEnnwFw9K2fbtUlBYKI8//rj07NnL9SW0pIJONahvhnzhpAGSlJgQtd4deyvlvc92ydGaBtfnm5BKcpJXTh6TJ0VDejURy8Zth+WjVbulrqFFT3d9cvMNJBUDsI7TWwf2SZAvnZ4uy9bXyUfra6WuvhGI5CSR00anyElFyfLX/x6VHft9EREiqRynxtORr90epILprtf/8x958sknZPfu3eLxeOSGG26U//ONb0hSUpLr62hJJSU5QW6+fIycMWWglGw9Iv2y0ySnd/gptuoan/z6z6tk8YpdUUduaJwJqRTkZ8n/++Yp0iuzeet1RVW9/PvdrbJ8/X7B9B8KIpddB6rlcEWt6/vjBpKKCqbj8ibExH2zE+TWSzNk7OBEqaoJyJ/fOipvLa+x8DjrxFS59qx06ZHqkbVbG+Shlypk70G/hAtYSCrHpQl17Eu3lVSqq4/KCy+8IM89+6wcOXLEany/fv3lN7/5jRSNHKl6GS2ppKUmym3XjpfM9GT55XMrZMKIPnLbdeMEZIMOhKgEUwApSQlSW+eTR/+2Vl7/cLtgKixaMSGVscN7W6SSke4ky/oGv9TWNXdkkMvq4nL5xZ9WSOXRY0PKKI0gqahM5bi8CVNbM8alyLw5PSQtpXHa9VBFQF7471Hrf199err0ymj89+ragPzu5SpZvKZWfGECZ5LKcWlCHfvSbSEVTHk9//yf5emnnpKKigqr4ampqXLzLfPkqquuUkUp1ihduVAPUrn92vHSNydNHnhmpZw4so/ccuUYSUr0yqGKWnn8xfXSv0+6XHVOgUUkHUkq4b7a1p0Vcvejy2TPgWrXj0pScYXouL6hZ7pH5s3JkCljksVeUqyta4Qk5VjQDBJZsrZOHnulUg4fDT+QIqkc12bUMS/fFlIBkcy75Rb5/PO11rQPpr1OOWWK/Py++6RXL/e1FPsNTUhl/nUTZPqJ/WTbrkqprG6QUUN7yoEjtfLsyxvkv5/tktRkr3zxjOFy0awh8uRL6zssUglLKrsq5O7fkVQ6xpK791OwnpjXyyvXn9lDpo9LloQWS4o+n8j7q+vkT4uqZO8hf8QpX5JK97aTuHi71pAKCOTQoUOyf/9++dsLf5WFCxda0cbAgQPle9/7vkw99VSjdzMjlfEydUI/+fsbm+SdT3bIl84rlE8/3ydvf7xDGo7twMrtnSb3f2uK/O+iTSQVoy/Bm+MZAY8nIP2zE+SHX86SQXlOVtm+xyc/ff6I7Drok0CgeWdiy/chqcTzF+4mbTMhFb/fb5FHVVWVPHD/fbJx40Y548wzJSszSw6Ul8tZZ50lJ5xwgpWjYlJMSAXTXzk90+TnT30mhyvrJD0V6yd+8QVNIPfKSrXWPV4iqZh8Bt4b5wgkJ4qcMTFVbjyvcVE+uGDx/unXj8rbK2qkLsqGR5JKnH/k7tA8E1LBdNfjj/9R9uzeLe+++67U19dLjx495Dvf+a5ceNFFlm4YpsBMi5ZUUpMT5NZrxsm4gmxZunZvxNwQ3DflhDx5/KV18vbHO5t2ZEVql8lCPbYS/7zF7q9I9W7cfkR++NjHsu8g11RMbYL3OxEAoZx5Yqp8+Yx06ZXZ2Mfs1Cg7ZQqL988vOiqLohALSYWWFXMETEgFzv8XDz4oL7/8ryZHjaz5H/zgHotUWlu0pALCmjahn1x/UZEgXyRa2bKzUh77+xrZq3DoJqSSkZYkcy8bLeMLsx0JkC3b0uALyLuf7pS/LdwodfXu+StcqG+t9XT/32GcNmF4ksy/MlN69mgkFATmn29uEPGIjBma2LR4f7gqIA/+rUJWba4Pu65CUun+9tLpb2hCKlhL2bBhg/zqV7+UTaWbJCUlWc4662y58atfld69e7f6XbSkggcgmx27vdwCImQc1zVgftm9WSakgi6dmOi12hGtDXguclWw1VhTSCoalI7PexCJnDAsSW6/PFNysjwWoSxeVSfPvVVlAXL92T1kxrhk8XpF9h8OyK//t0LWbK5vimSCUSOpHJ821KFvbUIqaBiIBdNgWKRHlNKnTx+1xlekFzMhlViAY0IqsXg+6iSpxArZ7lEvBCTOOSlVLj01VTbt8slTC7HLqzFzvm+vBLnx3B4yvF+CvPhhjbz5aY00REiqJ6l0D3uI67cwJZVYvAxJhaQSC7vqbnWCWHJ7eeVIVUCO1jZrfCFiTk/xSNb/n8uy77A/IqEAD5JKd7OKOHwfkoqZTEusPiEjlVghy3o5/UUb6FAESCoklQ41OD6sUxFgpNKp8B8fDyepkFSOD0vnW3L6izbQIQiQVEgqHWJofEhcIMBIJS4+Q/duBEmFpNK9LZxvxzUV2kCHImCTSlHaSvnlgz+x8i86umD31y9/9VtJSUmV6sxpsnTt/g5tArYUl5e+LpeeXih1vWfI0jUd+3y8bN3RQ7Kv9B3Jy0mXlPzzJDV3mng8iR2KAx/W/RFgpNL9v3Gnv6FFKnsWSW7dh3LBeefInp2lIgFdwl57NB65idU1DbJu4x4rsWvD7jQp27W3Pao2qMMjKQn1Mm1cLyne20PKdu4x+G173eqRhECD5PROlZT8c0kq7QUr63Eg4Dn3tnWKfGCiRgRaj0DAVyM1B5aIf+dCSZAqSfT6xeuWrt76x4X9JbLOq6vrJCHBL3X1CRL+zLp2fmiL6jwSkJSkQKc9H3obXm+iJPculKS+0yS192QRj5kwZ2wRYu3dAQHPyDGTSCrd4UvG+zsEGiTgr+/QCCXeIem09nkTG6e9SCid9gm684M9I0YUkVS68xfmuxEBIkAEOhABkkoHgs1HEQEiQAS6OwIkle7+hfl+RIAIEIEORKBTSQWHL+HQJbdy5MgR8eGAZEVBnUePHnU9NElRFW8hAkSACBABQwTaTCqJiYkRZckhYV5dXR3WweMwpEsvvVQmTpwQtck4+e+Pf3xc9uxx34KJI2bnzJktr7/+hvXc1hYQ3ZAhQ2TTpk1qMsOzvF6v4DhcFiJABIjA8YqARSpw8MnJSRAtbsIBhFBXV+eKC84LhyMPd8QrIgYQAs4bb1lw/xVXXCGTJp3oSiqPPfY/smvXLte2gFQuu+xSWbDgNStaaU0BMRQUDJcrrrhSHn74YamsrFRVk56eLieddJIsWbJEhVu4Snv16iX42759uxGZtawL7zBgwADrKF4NGatekDcRASJABBQIWKSCQ5Bw0h4co13g2O66626pra2NWs2JJ06UK6+8MiypwCH/9rcPhXXM8UYqaE9SUpL1Hvjr16+fbNu2TRV54P4zzjhdLr30MrnzzjsjRmeRgLSfPXr0KPn2t78tjz76mCxfvlz17HBkPXLkSLnnnh/I008/I4sXL7ZIDoMEFiJABIhArBGwSGXAgP7y6quvSkZGRtPzSkpK5PLLr3CdRurqpNIYpSVbRIKRvT19hX/TOuOsrCy5//77JCurp3zrW98SkzUgTB+edtppcsoppxw7Ovcs2bp1q/zjH/+Ut956y5XUgw0EdU2fPt2K1k499VR55ZVXre+3evUqefvtd1odQcXaCFk/ESAC3QeB45ZUQCKYJkpNTbW+JrShgkfzuNbQ0OD6pTHlduGFF8iNN94ohw4dkm9961bLeWumDlH54MGD5Sc/+Yk8+eSTcvDgQZk//w5ZtuxjOfnkk+Shhx62IhZtGTZsmNxxxx2ydOkSueyyy+T++x+wSOk73/mOPPjgg7J27VptVbyPCBABItAqBI5LUsE016RJk6yoxN5VhjUY/G+ciQ5ywbXi4mLXtY1BgwbJz372U/noo49kwoQJcscd862IB3VpdqxhTeqGG74iP/nJT6V3794yevRoWbFihfzud4/I559/bhGDZn0I5HjLLbfItGmnya23fltGjRol+/btE0Scd999txX1vPvuu60yEv6ICBABIqBFwCKV/v37yT//+U/Bdly7lJaWype/fK01go9WuuL0F6a2zjvvXGsNZPjwYbJ582bZsmWrFV1Akgo4DB9eIDfddJMVfUQqIKcvfekaa/3l/fffl2uvvVbmz7/TwgzXUJ/bbjD89t57fyivvfYfeeeddyQ/P1/OO+88ufTSS2TduvXy17/+1VoXcavnxBNPlG9/+1bp2bOnFem88sorsmXLFmvzwDXXXGNFKvimLESACBCBWCJgkQrm4uHcvEGS5HV1jTuH3BZ4uyKpAFBMb+Xk5Mjll18u5557jrz88svy73+/YpEIHPv9999vjfwxJRWpFBQUyN1332VNX2Vn58hXv3pjE6kgckCkgqglWsE0HJ6HtRDswDvnnHOsNZ6+ffvJr371K5k5c4YVxRw+fDhiNXjWHXfcLqtXr5brr79e0tLSpKKiUt57710pLz8on3zyiUUobsQUS0Nj3USACBwfCLQ5TwU7xwoLC8Oi1dBQLytXrgrrWONl9xemu0aMGGFFB0OGDJa33lpkOeB77rlHbr755oikAsd/++23S1VVpTz11NMyduwYy6HPnz9fjh6ttkgLzh3rMpF20AEDLPLPmjVLLrjgAikrK5M33nhdxo+fINddd61885vfsghv/foN8sYbb4Rd48Fzpk2bZu0+e+GFv8mPf/xjWbNmtbz88r8tghozZrT1TgsXLpTy8nLXQcLxYfZ8SyJABGKFQJtJpbUNg0OFM0ROSLTS0OCT1157LWrEYP8eDha7njAyd9sK3fKZIIDx48fL1VdfZe2Cy8vrKzfccEPY56Ltgwbly29/+1uLNOGsc3P7WATxwx/e2/RsbO0dMaLQcvDh1lewhRvkcfrpp1vEu2PHTqmrqxUQdV5enixZstRaZ0lNTZEf/ejHUlFREQIV6rjrru9LYmKStXV75Mgiqa2tk507d1qRDyJQTOehrscffzxsHa39hvwdESACRKAlAp1GKvYUlOaTmEzbtCWrHWSRmZkpU6dOtSKESI4c98GZI+se/9ueIsSCOpw5CAT/Bmfeq1dPiyzCvQN2jmEKDv8NVxDp2eklIK5IdYB47PyahASvI4nVrhe/PXDggGpHm+ab8B4iQASIQDgEOpVU4vWTwMljWiySxEy8tpvtIgJEgAh0NgIklc7+Anw+ESACRKAbIUBS6UYfk69CBIgAEehsBDxjx57QRUWhIHjZmGTIQgSIABEgAvGBgGfy5MldlFTE2snklpwZHzCzFUSACBCB4wMBksrx8Z35lkSACBCBDkHAIhVsR0VWfbgzUbStwBZaJPq5ZeBr69Pcx0hFgxLvIQJEgAh0HAIWqWRnZ1vqtm0hBBAS9KWiaWW192uRVNobUdZHBIgAEWgbAhapIOsaWd0LFixodW0QLXzxxRctZdyOKiSVjkKazyECRIAI6BBoIhUcFAVSaG3BeSI46Iuk0loE+TsiQASIQNdHwJhUsPYC+RGsn0CWxJ4yay9SCZY9cYOXkYobQrxOBIgAEehYBIxIBXpXZ555pgwdOtQSQIRc/K5du6wWt5VUoNmVm5triTnibHg3yXg8k6TSscbCpxEBIkAE3BBQkwq0sM4991xLov2Pf/yjtVsM8u84QKqtpILoBOs6ODkRB1vt3bvXOvXQTUiSpOL2eXmdCBABItCxCKhIBYdAnX322RaJrFmzRs466yzrrJCXXnqp6TTB1kYqiFD69u0rOF99/fr11pTamDFjLHLB/x/tnHiSSscaC59GBIgAEXBDwJVUMOWFnWGIVF5//XVrPeWyyy6T5cuXy2effdbk9FtDKjah4Jz2Tz/91Dq7BGs0eNbkyZOtc0pwTnykiIWk4vZ5eZ0IEAEi0LEIRCUVRCiISiAFv2jRIsH/f9VVV8myZcssQgnW3TIlFUx59e/fXyZNmiQff/yxNeVlL/rjeTiNEYdegWwi6XuRVDrWWPg0IkAEiIAbAhFJxSYUTHkhQsHhVeeff7611oEopeVCugmpgFAw5YVjiKuqqqyptFWrVlknF4JQhg8fbp18uHLlSuvfIhWSitvn5XUiQASIQMciEJZUsAgPAkGm/T/+8Q9JSkqSK6+8UlasWBESodjNNSEV1Icz4ZcuXWqdRojdZCAREMuAAQMswkH04nYkMEmlY42FTyMCRIAIuCEQllRAJvfcc49s2rTJcu5Y38C578FrKC0rNiEVrKWMHj3aWjvBwj+mtwoKCgRnuiN5Ev8WLUKxn01Scfu8vE4EiAAR6FgEwpLKuHHj5KKLLpKysjJrm+/f//73qISCJpuQCu5HNDR27Fhr6gt6YVg/GTVqlEUoeC7WWNwKScUNIV4nAkSACHQsAmFJZdq0aVZ0gkXy0tJSy8G75YyYkgpeE+snIBNELsEKyTgbHmstboWk4oYQrxMBIkAEOhaBiGsqcPjIEdGerNgaUmnrq5JU2oogf08EiAARaF8EXPNUtI8jqWiR4n1EgAgQge6LQBOpIGMeW4dbW6644gprpxhViluLIH9HBIgAEej6CFikghwUkEJby9/+9jfVWkhbn2P/ntNf7YUk6yECRIAItA8CPKO+fXBkLUSACBABIiAiJBWaAREgAkSACLQbAiSVdoOSFREBIkAEiABJhTZABIgAESAC7YYASaXdoGRFRIAIEAEiQFKhDRABIkAEiEC7IUBSaTcoWRERIAJEgAiQVGgDRIAIEAEi0G4IkFTaDUpWRASIABEgAiQV2gARIAJEgAi0GwJxQSpQRMZ59ZC8Ly8vbzqr3u0tKdPihhCvEwEiQAQ6FoG4IJWMjAyZMmWKJCcny8KFC9Vy+ySVjjUWPo0IEAEi4IZAWFLJz8+XQYMGRY0YcKgWjhves2eP2zOiXscBXQMHDrT+cE79ggULSCptQpQ/JgJEgAh0HgJhSeXEE0+U3bt3Rz0nvnfv3pKeni7r169vdetBKLm5uTJx4kRZvXq1ddrkO++8I3V1ddafW2Gk4oYQrxMBIkAEOhaBsKQCJ48o5MiRIxFbk5OTI3369JENGza0qsWIdPr16ydFRUUWoVRWVsro0aOt8+oRsSxfvtw6eTJaIam0Cnr+iAgQASIQMwQ6jVSwjnL++edbC/P79++3ptqwYI91lV69esmHH34oIA2SSsy+PSsmAkSACLQ7Ap1GKikpKfKFL3xBdu3aJdu2bbNIJSsry5oCW7lypSASwn/r6+sjvjQjlXa3B1ZIBIgAEWgTAhHXVHbu3Bk1UsCaCqKNtkx/4cTJMWPGWMRSVVUlY8eOlZKSEotcCgoK5PPPP5ctW7ZE3DBAUmnTt+ePiQARIALtjkBYUiksLBT8+f3+iA/EIvvatWtl+/btrW4U1lVATCeffLKgPpAIpsOwUQBrOsOHD5dPPvkkYrRCUmk19PwhESACRCAmCIQlFTh7/LkVTFnhry0Fz8FUGNZSQBL4L0gGZIVtxiCVSDvBSCptQZ6/JQJEgAi0PwJxkfwY/FogGez+ws6wsrKyqBn2JJX2NwjWSASIABFoCwJxRyomL0NSMUGL9xIBIkAEYo8ASSX2GPMJRIAIEIHjBoEuTSoQoIy25bjltJpmncj+TbRNCi2tA5sMTEpXrNtk/Uy7JhdrrE3ajLaYfEeTbxjLuk3ajHaYtNukbhOsTe0jlnXHCg+TemNpH6ZYm7Q7Ut1dllTwQqeffrqMHDlS5c/79u1r5b5oCoAtLS1VERY63tChQyU1NVVTtaUSgLp9Pp/r/UgGxS48/FdTjh49Klu3blVtnsCGCOyu0zqOffv2Cf40JTs721oT0xRMYWLtTLPhA98cunTYiq4p2Kp+8OBBza0WxtjGnpiY6Hq/iX2gsqSkJKtuDdawi40bN6rtQ9tmtKOmpsbaoq9xHCZtRt1IYN67d68rdrgByc0DBgxQ3Qu7gE3Dtt0K7AObe5CSoCnAGn3RTbnDdvroixr7QJuxe7W2tlbTDKtO1K21D22b8fAePXrI4MGDVRuv0N7Nmzer7AN1R/KpXZpUZs+eLePGjVN9OBgxNgBoCowN+Tca/TEYwogRIyQtLU1TtUVUqFtjyDC2UaNGqQwZD4fUDQxO46Cx4w6ErDFk1A0HrRUPhXwPnL+mHD58OGouUnAdcBog8J49e2qqtnYQHjhwQHUvSAVYw5m6FThlaN5p7MMmFdStGRzALlC31j7wDTVtRjvgmEFYGlLBoANt1toHbAM2oikYdMDRaQpsGW1GHptbgX0MGTLEIi1NAcboi5rZDnw7YA1c3ArwLS4utkhcU/D9YmEfeDYGYBg8amZp0F60W2MfqDuSTyWphPnqJJVQUEgqzZiQVELtg6TitA+SioZO4+weMC8jFedHYaTixIORihMPRipOPBipOPFgpEJSCaF5kgpJJdrYj6RCUolmHyQVkgpJxSV6ZqTCSCWaiTBSYaTiQIDTX6HdhZEKIxVGKlyoD7YBLtQbrNuQVEgqbubCSIWRCiMV7v5y8xNN10kqJBU3YyGpkFRIKiQVNz9BUomCEKe/OP3F6S9Of8X99BciguAEKOzR1yTXubGDnYzT2rrw+zlz5qiTH/v37y+5ubluzbKuI08Fh4VpktuADbKaTZIfUbc2ua2oqEid/IgEMW1GLJIfkbSpTW7bvXu3OmMaygXIbNYUJD/aJ3+63W8nt2kypmFXOGjOJPkRWGsSCU3sA++EOlG3JvkRiXgm9oFvqGkz2oHdX8j01iS3IckPdWvajLqRTQ8b0RQkP8I+NAl5aCtsWpv8OGjQIKPkR2CtTX4EHtrkRyRsmiQ/om5Ntj78BnJgNP4D3wJrKkgY1mCN9mqTY1F3JJ8aNfkRAOLjDxs2TNLT062MbRglEuE0HyKSgdnSJpB2gExHa4gFIM2dO1emTZumsWPrOW5n3tsV2fL7mg6FtuM9tHigTmT2az4yOhQ6q8YJoO0gCq0UDRwj6tZiD0eOA9U0Bc7r0KFDmlstMsYpotqCQ9y0nRWZ1bBbTQEOwEMjn2NiH3i2yXeEfWDwoyF71AvpHE2b0Q70Z9iHxvZM7QPOSyufY2IfaCvarHHmeEfI8kATUFOAMfqiBut4sQ+TNgMDDIzhnzQFgxOoYWjsA/UdOXLE4oSWJSKpQDMGEij4QDt27LA6MjooSAaMumbNGvXHC3nosTNTMMKHJAUMQevcgh3/vHnzZNasWRq8rFGrVpsIHw6yCRpDRsfGaEdryPhwkHvQjkq0kh0AAd8MGkIao4DODyQqtISFUQm0fjQFRgw9L02B5Ip2JAUbgXYVohtNwajVhGSBtWZwYGIfaCfqRN0a528izWOyJRbtQP/VakzBGaHNWvuAbcBGNAXRo/bEWNgy/IRmQGPrhGkHNMBaK3ODb2diH4hMtXqAsbIPfAsMpBEIaPwr2ot2a0gWdUfyqWFJBY5v6tSplpAbPn5wg/CRoSUDI1q2bJk6DAtHLDBCfNRPP/3UOGJBO0gqTlRJKk48SCpOPEgqTjxIKk48YkoqcPYYHSxdujTsyA0jeJAOzpTXhlbhRjBgRKjZIipYvny5NWWiYVTURVIJRZSkQlKJFimQVEgq0ewjpqQyZswYa74M017hnLy9YApSQGjVlmITC6ZAQFKY2tAQC0mFpOJmd4xUGKlEsxFGKh0YqWAtBTs5op2fAdljjHywW6CtBQSB6OiEE06QJUuWqKbCSCokFTe7I6mQVEgqcbKmgjUTTKWsXbs27EIddqiMHz/eWvhGNNMexY5YMO2G57ot3pNUSCpudkdSIamQVOKEVLDTYsaMGfLhhx+G3WmDfeannHKKvPvuu+pdT24OANdBLIhYsIV51apVUSMWkgpJxc2mSCokFZJKnJCKPR2F7YerV6+2nDu21CFCwRZQTFOtW7fOmh7TrH+4df7g63bEgmdgd1mkNRaSCknFza5IKiQVkkqckEpw1ICOib3q+IPDxx9yBXDSW3sTim0ANrEgKS7S/n6SCkmFpKI/DhdYcfeX02K4UN+BC/XBjwLwyNSGo0e0gqQorUSAW6ePdh2kgWfjWZF2oDFPxYkgtxQ78WCkwkiFkUocRSptIYSO+C1I56abbpKZM2eqHoepOq0OFAgU6zoaTSVEcNCu0kqHgChRt0YCBiQO3SMtiWMkCkeqyajH4AARpzZjGtIh2ux05BtpdaAg7YGdhJo223peWrkd5EBBqkVTgDXw0GbUa+0Dz8b3w3fUZtTHyj4giQP70GRMAwetjhzeEfIe+NMUTGlD6klTYBeDBw9WaevBPlAv0iE0BX0QWGvULWwNMq19IEVCo8gRS/tA3dBMg7qFZlYJeSrAWmMfqBsbtSCb1LJE1f7SfJjOugfGdvHFF8uECRNUTYDGDzYYaIqJAaEdMCBEc5pi4mBg9NiJpyEgPBtSMVpxRhg82q01ICS5ahNdMW2plXQBQUDuQWP0wBoyQRrJDuABYtPDobaIAAAgAElEQVRKdsTKwaAdGJzAeWmwBvEg90tDQCZtRjsw8IFKhgZrkzajbgzYoqUgBPcNED0IX1PQVqh6QC9MU2AfWg0yk0Ebvh36opaAgDOkkDQllgNNzF7k5+erBm1oL9qtHWhG8qldmlRmz56tVinGaBggaAqMDbpYWpViKIyaqBSjbk30YaIDhfei9L3z6/I8FScePKPeiYeJdhoIHJJSmugDThlKwtrZCxA4VEU0g0e02UQPkCc/ajz+sXswaiWpOAEjqZBUonUhkgpJJZp9gARBhtpIJdJAnZFKGJQZqYSCgrlq7PjTFMytI+TWFMyvYy1DMyVjTzViW7umMFJhpBLNThipONEhqTBSCekvjFQYqTBS4cmPwTbA6S/N8JPTXxFRIqmQVEgqJBWSigGRBN/KNZVQ4EgqJBWSCkmFpEJSiYgAd385oeGaihMPk4xw/JIL9U78uKbCNRUHAoxUGKm4jUe4UM+Fei7UZ1r5NZrkYi7Uc6GeC/UurEJSIamQVEgqboPPput2Rj3OddEUZHhrZUbsTFtt8iMy0yFxoCkIuZExrU1+1Gbx2tMbyKjX7DOHAoA2yxt1I1tamzEN5QJtxjQy6rUyEvjm2KqsyZjGFmVk1ONcHk2x1Qu00jz4hhr7wLNRp1YZIZb2AcUFbcY0kvzQZo0KAN4RaguQ7dAUKC7APjSjZ9gyBgeQG3ErtuJCVlaW263WdVu9QCO9YmofkLjRZtTHyj7wjlCf0Eo3ob0m0jyRfGqXzlP5xje+odb+gtGH06kJZ33oSCAKjSQDnBccudaAUKdWHgVGDyegISC8B7L6tZIM6EhaB4O6kXuilblB7ok2pwUEgTN0tAWSLtiQoCkwem1OC5wX8mU0WJvYB9qJOrU6a7CPIUOGqLKrTe0DAx+tgzFpM94RAzbtoA3aXFptOHsgoVWsQD6VVhsORIG+qMlkh32gv2gICPaBb6gZoNjkBvvQSvNo22wPNCMdC9+yD2GgCe0vDdnbAwm19hfAgLNE5QAc/7Xl71GZLYGPOThN0prGAaAzYXSEOjUjbUrfh6JKlWInJlQpduJB6XsnHiYbHeDwIY+iJZWioiL17AXqjHTER8tebrp5BwSLqFrjpzHoQLu10SkGeOGi07CRCtLvESqDueCo8F+En3YIipAKISaO/dWwazRSsUNWvAzIDKNcgACBumh1k1RIKm6DFZIKSSWajZBUnOjElFRwTjzCUzCWrb4LJw62wx+mH6ZOnSoffPCBarrA7cNCbdie74WCKZ5fUlJinfwYiVhIKiQVkgoP6Qq2AfgmTFFplalJKh1IKhjhIVI47bTTrLlxTIFB4RcLZmPHjpXXX3/dUtVcvnx5myMVRCeXXHKJtQiMZ4HIEClhMe+ll16KGG6SVEgqJBWSCkklei+Im+kvLMqiMdOnT5dPPvnEIhXsFFqzZo2ce+65smjRImtxFdNUmvWPSK+NekEqc+bMESwmgVjso4SxyPriiy+SVNavV0eDXFPhmko0F8M1Fa6pRLOPmE5/Yb0E01HnnHOOtXaCqAAGCaLBbp2//OUv1q4aTJFpFoDCvQgIZcqUKdaOJRDUq6++amX8IiRFVIRrJBWzsxNIKiQVkgqnv4JtIG4iFUQJWDC3IxX7ZDJEKmeffba8/fbb1tZEHDbV2kgFO72mTZtmLf6DsBYvXtw0IgdjYp2FpEJSaTm9ga2XsE1N4UI9F+rd1nNx8JZm6y93f4UiabT7C1Nd2Cp26qmnWvvrEVVgnQPTXZMnT5Y333zTOnFx6dKlbVpTQYSCtZlVq1ZZOSR21AOSOe+88+SVV17h9Benv5qsGfZBUmnu3CbaVfgVp784/dVp019IrgGpYDrFTjoK3v2Fa5MmTYq6O0szksT6Caa6QFArVqxoSk7E85Fo99lnn3H3F0mFpBKhM5FUnMBw91eoocTV9BeSEBEWglQwVYU1Fvyh4N+wptKW6S/79UEsubm51kYAO7EI022rV6+21lgiFe7+CkWGaypcU+GaCtdU4nJNBSSCtRI4fEx94b+YU7RzRvBv+IPTb+1CfUvjB4HZOTEgNDe5DJDK17/+dZkxY4YmKLI0oLRz8XjfgQMHquQb8P6QhtDqQAE31K3JWsU3wK44bYIp1qKwHqaRWQC+WvkGAIwt3lrJE4yOsCVdU0CEGFRoC6LkaION4HqwixGJupoCrDFH7GZ3qMvEPnA/vh+w1qw/xtI+0L+0mlsmbcY7Ir8Mf5qCPDfIJmkKbBlttn2D22+wg1SjE2b6HdHP8Q019mEndGtknmJpH6gbvhSpGho/Db+PJQmN/0DdkXxql9b+wlZkraAkDBNORlPQ+ZF8qZVkgPCeiaAk6tYQBYyysLBQpUGG94KzhSCc1oBQt4bcUDcMUysoCQ0orZ4XdKCQ/6RpM4wd2kQaQUm0GSSh1XuDMwcemkVb2MfGjRvVAwnUibo1GlNwWqhb47xQ34gRI9T2gZkGrWQH2oy6tfZh55lp+hcGKBhYaYq9jqYlCmzO0A5+0AfRF7VYm9hHaWmpWg8wVvYBfDGogg6ZhihAQCZpIpF8apcmldmzZ1vrMZqCjQZYv9EUGBum9jTRBzodOp9W8A5Ehbo1hmyq88OTH51fl9L3Tjx4SJcTD5M1KRA4dophNO9WMOgoLi62ogRNAalgw5J20AGdMI3/wLN5Rr3mCxy7h4d0hYJFUiGpROtCJBWSSjT74CFdPKQrxD5IKiQVkgrPqA+2AUYqjFQcCHD6y2kQPKPeiYeJICJ+yUiFkQojlSgIcPqL019uYxCuqXBNJZqNcE3FiQ6nvzj9xekvF1YhqZBUSCo8o95t8Nl0nZEKIxU3YyGpkFRIKp1EKnDQ2v3obh25LdexFU+Tr4BnkFRIKm62RlIhqZBUOpFUsP+6vt4nEgi49dX2v+7xSFJSotTV1ZJUgtDlQj0X6qN1Ni7Uh9oHEv20mf1cU4nhmgpG/TDQvXsOqKQk2ptVkPSTm5dtJfSYRCo4MXLChAmq5kAKBJm8moKICceSajPqkcWrlZHAO6JubUY9OokmKQrvhYxprRwIBhHITtdGqJBd0UqvoFNrE02xDRoyN5rvDjtFEiukXTQFki7ao2WBMbDWSGuY2AfaieQ2YK35jrCPbdu2qZLb0FbUq2kz2oGF2LKyMlUfR5uBh9Y+oFyglV5BxjvsQ5PlbcujaKR5UB+UHLTSPOiD6IuaREJT+0CUXFtbqzFTI/swaTMejr6CPqPBGsnesD2NnBDqjuRTrYx6i1QSEmX37n3i8/lVQLTnTfhgffv1EZ/PjFRuvvlmmTlzpqopcDBao0dHKigoUEl2wOghjaLNnoUDQN0aBwMDgtyDxugBAqTNtZIMMCATSQY4Aa3MDTSBQBSagkPg8vPzNbdaxAOnCG0xTYGDMRlIAGvtQEJrH2gnvh/q1g4kYmUfUH2AArjGwQAHtFnrYGAb2oEEiB4SOpqCtsKmYduaAvuA9I+moA8Caw0pAwcT+4B0kyb7Ppb2gbohbwOi0AzaMDBGuzX2gboh3RRuoNmlSWXevHkya9Ysjf1YRgxi0RSQCmQTNEZh64TZCs5u9WMECLkHjSHDGZlIMlCl2Ik+D+ly4sHzVJx4mEwf8pCuUM8W9ZCurhqpkFScH5qkQlKJNqghqZBUotlHu55RT1JxQs1IJdT0MJUEWX1NwTQjpiE0BfPr2ikZnvzoRNRkoRm/JKmQVI4rUuk/INdS+o00n4c5XqwD2HPePKQr1DwYqTBSYaTCQ7qCbaDTTn6Mh0hlRNFwufW270Y8K+OthQtl0ZtvNsnRk1RIKm6RENdUuKYSzUa4puJEp9tNf409YZQ88ewzkp2TE9YOnnniCXn26aebtumRVEgqJJUG62wezY41Tn+FWgtJhaRCUnHxopz+4vQXp784/cXpLxErZ4ORSqg74JZiJyZcqOdCfTTShH0gmVGb8MpIhZEKIxVGKrJlyxY5fPiw28yXdZ1rKlxT4ZpKhZXkrEl+5JqKxyPMU3F2GU5/cfqL01+MVDj91Ybpr+uvv16mTp2qGrViKkkrd4IKwdragq3OWjkLbDDQ6oTh+dAP0owycC/yazQqAPZ7aaVlcD+UADTSMrgX2cfaxWPUibq1BfVq5E5M22yKtYl9oG4t1l3VPjCVpFGJMLUP3I/+opUOMbGPWGJt0uZY2gf8EvyTppj6j0g+NW5kWlqzpjJ79mwZN26cBi9LVE2rTQSnhV01mo+BDzFixAgrx0ZTYPSoW0NwVCl2IsrjhJ14mKwJ4Jc8TtiJn0nyKAY/kFfSDNrgyIuLi9UDCQyqIAulGbSZrrN22hn18ZCnQlIJpSSSCkkl2kCFpBJqH5S+d2JCUjHMU2Gk4jQgyMhDSVUzXYbwHCMvrbQ5VIehSqopUKzVKg9j0R2L75o2M1JhpBLN/mxFY56n0owSSYWk4ugzjFQYqTBSCcjGjRstCXe3QlIJRYikQlIhqUTxHIxUGKkwUjE7DoOkQlIhqZBU1GfocE2Faypu0Vvnksqx44Q75+RHr4waUyRPPvuskfYX11S4phKtU+FIV+0RyNh5gx04mu3N2N2Dw9M0uwPRvljt7iGpkFTimlSwVa6h3hd5wdQj1pHDScnJbu9hfN3jEcnNy5VHfv97yc7ODvv7cIKSJBWSCkllpIoIgRO3FDuthVuKnXgglwpbobU5d5HSNKw8FVTtllyE3UKnn3mm3DB3rmo/tSmzYKSIXUOR9mqTVNwR5e4vJ0aMVJx4kFRIKtG8SLuTipvLQgbxhbNny7dvv12dOetWp8l1koo7WiQVkko0KyGpkFRIKkEIhCOVK664QiZPnuzubUUEuljarHfkTEDpVCMHgggPR+JqJSoQWqJuTYiJHBLsudfmkiBb/8iRI6qcD7QX7XaLUG1w4ZDwpynAGXhrCtYlcDqdNk8FC4+arGY8G9tQq6urNc2wMNZibWIfeDiib9StwTqW9oHpHuQFabA2aTPeEThrtv3iXgxQYR8aPNBW2LRG9gf1mdgHsAYemn5uah+oV6OaYdsH+qKmn5vYB+pGXwEmGqyBA3yTxj5QdySf2jT95dbz4jFSueWWW2TWrFluTbeu7969W/bu3au6Fx8XiYHaRVskHGqdl724qpVkwByn1jjxkYcPH64yIDhzk/nTfv36qWVusDi+Y8cOFdboTIMHD1a12ZY2h5PRFCRgRlqja/l7dCjgoXFesI+ioiI1uaFO1K1xXib2YcsJae0DZF9YWKjC2pYT0gx+gCUkkGAjmlJeXi5lZWWaW622wqa1gxRI32tVrG3pFc2A0NQ+IN2k1fgztQ/YnqbNABizF5s3b1YRBXw87ENDbqgbCdH79u0L+Y5qUgFAF1x0kdz63e9KQmKiyiDa86bnnnpK/vTsszz5MQqoVCl2gkPpeyce6enpaqeBQQd2uGlJpW/fvtK/f39Vl8egA+tdmgJSKSgokIyMDNfbeZ5KKESddka969c6ti0SLHb+RReJNyFB85N2veejDz6QZUuWNI0keZxwKLwkFZJKtE5HUnGiY7IlG5EKSNYkktUqWaNO1K2NZLH1XRupxDWpIFTEi2imbdqVTY5VBsAR5tvAk1RIKm52xkiFkUo0GyGpONFp10O63DqnfV2z2KOtq7X32YtIJBWSipsNkVRIKiSVTjr50a1zxuN1kgpJxc0uSSokFZIKScXNTzRdJ6mQVNyMhaRCUiGpkFTc/ARJJQpCXKh3gkNSIamQVEgqJJUgBEyPDiWpkFSidSDu/nKiw4X6OFioV3v8DriR01+c/nIzM0YqjFQYqTBScfMTIdNfM2fOVP0mVhn12I1WUlIiEGPTlFhmTHfFjPqsrCyjjHocPazNmDYnlQ1SX1/n+hntTGytXIxJHgJUHKDmoMlDMFHZxUuZRiobNmxQ5U6gbpPkx/ID5bK9bLsqyxvZ3ciP6+yMeiSBAg9NngoGvMh612bU299Rm6cSy4x6KAFod/m2OaPetad18A148auuukqt/QWJCu1HBlFA3kDzkdEOZPtq83dgnKhbk6mMDqXV7QH8ME7oL2m0e9BetFtrQCBNLXECZ63O2saNpfLaa29IIOBXWVBVZaXU1zeo7k1LN/vmlm6a3xLtjl48IiBDrZwFvnWFpcnmVnGjWjjq9ng9rjejrVqtN1SWkOCVDKUOFNpsyeEo2oy6U1L137yutlaOHtVpssFOL7vsYhkwcIArHsAOxKmRV0Jl6CdIDtT0RVtXTPPNTfwH2mHSz03ajLqBBTDR9HP4O/gmjf9A3ZF8aohMCz5ibm6u5OTkWA0KFjoDS+Mj2AWjB9tRoyHQgdmzZ49A2yf4Q6GewhEjZNCQIZJkKPECJ1laUiI7d+50OHmAxPNUnP2sK6oUv/feYvnR//2JisBdvQpv6HYIIGK7Zd5NUlAwzPXdeEZ9KESddvKj3RT7o5xxxhlWOGufWIcPi3FTRWWFlJZuspgM90IIsHfv3tbP/T6frP38c0u87K233rIEHG0WnnrqqXLLrbfKkKFD1aM7u03QIFqxfLk89MtfCqY+gttKUiGpuHoa3tClESCpOD+f6eadTicVhGHnn3++jB8/3nL++KDBOjMtdWSGDB4ivbMbScXWxsEUybvvvisfffSR9e+Yd/7JfffJtOnT1VNELXsBiOWXDzwgr778MkkliotgpNKl/ScbHwYBkkoXJxVMfV199dUybFhjqIkPWjSyyDpGGKWyskI2b97SFKnkD8qX3r1sUmmQ4uISayFryZIlVrSCAj2ZPz79tDX91Zby6MMPy/PPPUdSIam0xYz42y6GAEmli5MKPuB3vvMdGTt2rPUmfn9ADhzY3zTfjfWT4MOGsAvHPkcEkU0OjgP2euWNN96QF154oYlUHn/mGSkoLGyTOT/6yCPy/LPPklRIKm2yI/64ayFAUukGpHL33XfL+HHjrE0fLefvMjMzpGB4AbaoWG+6des2OXiw3PrfiHIwVYZ1mFdffVWePUYAiFRIKs2GYR9+pDlYqeX0o5s74PSXG0K83tUQIKl0A1K56xipYGW+ob7B0vm3HSC2I4JUjnGK4JS1gwcPNpHKyFGjJJmkErXfklSc8HD3V1dz8x3bXpJKNyCVO7/3PRl3wgnWm2DxHbu5bFLBFmIc0WrveUbyi52Ihkhl6LBh1pbhBa8tkD//6c+c/grT/0gqJJWOdctd+2kklS5OKiCGL33pS9aZ0Cj4oFi0txP7jh49ah0DaifHDBgwwErUQvH7fbJpUyMBYefXwoULSSokFVePxkjFFaLj+gaSSjcgFez+Gjp0aBOpjBqJdZJEa40l4pbigIjP33zc5rJly+TNN98kqZBUXB0iScUVouP6BpJKdySV0aOathSHkMqQY3kqIBUf1l8atXE6ilSuu+46mTJliqrTIcNfI8dgV6bRXrLvxTShVtrAjgBVjT62WUJ7L6YltXIxqFOzWcB+NurVSD3gfmChkbjBvcuWfSwP/fZ3Rt9Giwfv6/oIYOPPD++9W0aPHqV6mXjp5yb+w7QvxqpuU/8RCWuHTAscx4033mgJuKFY24RzcsTj8VoZ9XX1dU0L87gOCZfUlBQR8Yg/4JcDBw5YzuH999+XBQsWxDxSmTdvnsyaNUtlbJB52bt3r+pevDd2smkEA/G+EJS0t1a7PcBUMDB4o4Rb3V1R+n7VytXy9NPPkVTcPu5xej0pOUl+/etfyPjx41wRwGAGm4cOHTrkeq89uIN4p0YrzE7u1ghKwn9A9BE7XzXFRHDUdEdoy0AgWntickY9GnzXXd+XcePGW8/GSLa4uLh591dGhrXGYo9Ysb4SvPsLQNpbip87lqgYyy3FJBWniZBUNF2Y93QlBEgqzq/VJUkFeSrjxo1rjEwaGmRDyJbi4U2k0tl5KiQVkkpXcpBsqzkCJJVuRCp2pBI8/QJxsmHDh4nX47VkvLdta85Tsc4JGTVSkhI7LvmRpEJSMXdT/EVXQoCk0sVJBWsqX7nhBhkzerQVjeDPPhwHCY8NPr9UHz3a9JapqWmSmJjQ9P9Dph5rDG+//ba89tpr1r9D2uWRP/zBkn7RLvS2NHrMlT78m9/I3/7yl6ZLPPkx1DVw+qsruUu2VYMASaWLkwoWmE4++WQ57bTTrINdWs7fQVDSlr7Hq7ZUKV63bp21xoLtxPjfKKjjKzfeKFdcc43RgVM2lCApLLA/8LOfydIlS0gqUXoiSUXjpnhPV0KApNLFSQXNx2lekyZNkjFjxlhRCnaCWVvYAiKVVZWybdu2pu2zAwcOtAQmcQ1bileuWiWffvqprFmzRmpra5vQwJkrV1x9tcw64wyLrLQFEQoI5d8vvijvLFrk2GHFSIWRitaOeF/XRYCk0g1IBa+AaTA7LyE47wFOPjjXA5FN8JQWdoth6124HAVsz7W27tnCYRo7DwQsAsN5Ki1zKkgqJBWNCfGero0ASaWbkEpXMEOSCkmlK9gp29g2BEgqJJW2WZDBr0kqJBUDc+GtXRQBkko3IBXs5Rogfukb8Evzvi6dRdaJyC5PguxFhn3QT5ITEmV0Tn8Z2rOPJCfoa4XeWGVdrWw4sFu2VRwQn7+5VpAKZFqmTp2qalykablwP0bdmixb+7eYmtNKwJjWjWxbrQSMfQS0ChDkIdXhi+nKtm3bpaxsp+rmqqpKOXTosOpeKB0sW/qx+h1VlR67qahohAwY0F/1E3yX3tnZkpDgdb0/4A9I+cFy8fuCrTzyz/BdULfX23gOUbSCOssPHpRAkK1Hut/j9Up2797iVbQZddTXNzRmmyMfwKWgzuze2eJRtBlVrft8vaxZs9atWuPr6If33vsDGT1GJ9MSL30R7TbZ7art56b+A75DowKAD2PqPyL5VIdMC0y+QHxypr9Wcn0+KwHSpKCL7UxIlIXeFNkhjZ0zweOV0wYWyv+ZOEsGZvQWr8maCjqC3ydr9++Qhz99SzYd2tfUHIA7e/ZsK1FTU6ConJeXp7nVWhPasGGDyuniQ4wYMcLa4KApXVX6/sknn5bnnm08zqCrlKuuvkJOO0036Ag+ZM7t/TCAQP6WlpThYCD7o9Fla3kwXrS2WLlhSpkR1AOV8Y0bN6oGQFgDRZth35rypz89L088/pTmVqN7KCjphMvEPvBL5BZCdV5DcDU1NZaCinaAHMmnOrW/ROQif52c4Ks9RglG39+62Sci7yWmymJPkvX/I0r58fSLZUr/AmNCsZ9e7/PJQ5++Ka+WriSpRPkksTz5kaTSDDxJJdQISSpO+4BzhpPWlFgNOuKGVK7x18gwX70Gi4j3LE1MkYWeZOt6SmKSPHbOtVLQUxclRKr09yv/Ky98vpSkQlJR2yYjFSdUjFRCR/2YkdBMDyHKRFSoFZklqRzDGqsd7U0qqRapXCfDe+aqnUG4G/+w8r/yV5JKVAwZqTjhIamQVKJ1GEwlkVSaEYrZ9BdJpfEYZa6pOLsjp784/RXNQXP6i9NfNgIhayokFZJKOOdBUiGpkFQ4/RVsA+qFepIKSYWkEn2mlgv1ofgwUmGkwkglit/g9FcoOIxUGKkwUmGkwkglCAHmqThdAo4kwG4WbR4CSYWkQlIhqZBUSCoR/QBJxQkNkx+deDD5MdQ+uKXYiUm3XFOZM2eOjB8/PvoE+LGr/fr1kz59+qjuxZx5SUmJav86MlULCgokNTVVVTe2MaLucErOLSuAo0O2vnX0gKIgD2Hz5s0qyRM4DRxroI1UnnrqGfnTc88rWhE/t1x9zZUybdqpqgYBh6KiIhXWJvaBhyO5Dd9Rg3Us7aO6ulo2bdqksg+TNuMd//znv8iTTzytwtrkJtj+N795sxQUDlf9bNCgQdKzZ0/VveiD6IstFdDD/dhWztDIN0EaBcoFwcd/RGsQ3hH2oVFcQJuRA6PxH3hmRkaGDBkyRJVRj/ai3VpZqEg+tUvv/po7d65Mnz5dZUBHjhwR/GkKiAKAaT4yPsC+ffvUkh2os2/fvioHA+e1Z88etQEh+gBxaiQZYJS7d+9WG9C//vVvWfDqfzTwxc09t946T86/4DxVe/AdgYems5rYBx6O74i6NfIXsbQPDCRyc3NjYh8LFvxH/vXSv1VYm9wEJ37ffT+VsSeMVf2svLzckqPRFBAF+rmG7E3tA31cOxiMlX0AAxAF/JOmAGtIWWn8B+o7fPiwVFRUhFTdpUmFZ9Q7v2csT35csOB1WfjGmxrbjJt77ph/m8yefaGqPSAT6HlpsqvhhKCLpcmuxsNRJ+rWEFbL01ajNd4keQ/14IA8bXQKXTO0WUOEqHvhwkWy4NXGI8Tbs1Cl2ImmiX3gl3D62ugUsy2I1jUki7ohBotDFFsWkkqYHmDiNOypEEwtaApGA5ib1YxiTMXjSCrOL0BSceJBUgl10FpBTtNBB5yzdko8VoOOuCGVy/21UuTTS6K3dKQQ1f4wIVXe9jYKSqYkJMqvz7haxvQZaKx6bNeN0PPR5W/LPzd80vQ4nqcSSmEkFZJKtIENSYWkEs0+YhKpQOT6JGmQaQ21khHQnRUR3EgQyhGvV95MSJV1x05jSfR65erRU+SKkSdLVkqaMbH4MddddVh+9fEb8unuLSSVKFZBUiGpkFS2Np4ZoygmRwcwUgkFVDX9ZUUWIjJZGmSsr15SPO6H+QQ/qirglRUJibJGEiVY5zgjOUUuK5osM/OLJD0ZT9CWgOytOiKvbFwp75eVSJ2vgaRCUtEaj3D6i9Nf0YyFpOJEJyaRiv0IqBXrz2dsbhgoCOephItxkrwJkuD1iscwVvFLQBr8Psepj3gip784/eXGLiQVkgpJpZMX6t06aTxdJ6mQVNzskaRCUiGpkFTc/ASnvzj9pbYRkgpJhaQSB6SSnCAyrrdfxvSql5QETGgp11UCHqnyeWVVeaJsOOyVhqA5sJRkj0walSQjh3okxdoU5lE6hoAcrhRZscEvJd18dIkAACAASURBVNvrxYe5tWOFkQojFTcjIqmQVEgqnUwqXo/ItDyf3Dy6UgZn1IrXcKHeF/BK8eFU+e2aHrL6IPaSiSR4PXLGKSky70qvDMzziMewzoYGj6wtFXng2Top3tq8/A9SueWWW2TWrFluvsW6jozmcIk64X6MPBXt/nVbkkGbp2IvDmqy9ZGnAkkGjYwE3gNbRocNG6bKiEWmLerWJre99tob8ubCt1RYm9yE76jN4LWGIx7tgETkttu/IxdeeL6qObb8hTb5EXkIJsmPWmkNE/uw1bS19pGWlmYlP2owBA44qE5rH28i+XGBTnFB83z7oyH58YEH7pNx49wz6tEXt27dJocP63Z/oQ+OHj3aktFxK8BBe0qkLekChQtNAdYm9qGVE8KzcRqsVroJC/Xa5FjUvWvXrrDZ+o7kx0SvyA8mVMtZAyskwdD52+A1+L3yVHGWPFPSCGhKkkd+8d10mTouIN5GnjEuIJYHn22QF9+ubfotDPPKK6+UyZMnq+qDw9UmI8E4IemiyYBGO7KyslSSLmgo6oa8gaazwjihY6TthGVlZfL3v/+vNDQEhXQR0PH7fVJZUamNQ2WPRco6uQfVBzl209ChQ+SMM08Xr4YsPB7pm5cn6T3SVY/o1aunYJu1pgBjYK3JJjaxDzzb5DvG0j5gz7BrjbYTHC7sWmt7JcUlsm7deg3UkpGZKbm5eh2+j5d9IuUHNUQRsCRa6uubd4lGa1Baaqp85YZrVTbSFe0D7w7CzMzMVH0XE/tAhZF8qoNUkrwivzylQk7O1WnnRGrpC6VZ8vDnadbl1GSPPPOTNCkcpHqviDc9/FefPPeqk1Rmz54t48aNU1V8PEjfr1q1Wm67bb7U1wVv6FbB02k3TZgwXm648TqVM0fHHjp0qFowcPv27XLgwAHVu1Gl2AmTqUoxNOowctWU7OxsGTx4sOZWS+LmttvulFUrV6nuN7kJA47v3zVfsrLcnS7sgyrFTnRVKsUglV+dckROytVJjkQklU2Z8vDaxtFkI6mkS+Eg5dpMhEofecEnz75CUonWaUgqTnRIKk48MIqHCq0mSiapOLEjqYR6HpLKgAGWAqemdNWTH0kqJJVo9k1ScaLDSMWJR01NjdE6K0mFpKLh0w6/h9NfTshNRERNMsLxFJIKSSVaByepeDzCNRWniTBSYaTCSEU/LmKkwkiFayou/YWkQlIhqZBUghHAzq/hw4erdvExUmGkEtJ7SCokFZIKSYWkorQB7v5yB4qkQlIhqbj3E/sOTn9x+ovTX5z+Yp5KkA1woV5PIOHuJKmQVEgqJBWSCkmlbUwS9GuSCkklhFQuvvhimTBhgsrIkKOCTF5NQXIY9HI0OlB2lrdW5wc5MJs2bVJJwCDhCotsGp0wvNfq1Wtk/h3fV7Vbg0NH3DNx4gT56tdukIQEnYZPfn6+ZGRkqJoGvTftKYCQUgHWGP27Fcic4Btq7AN1oU7UrZGAiaV9YCF269atKpkWyHtAR07TZrwjlAv27dPJ+PTq1Uv69evnBrN1HRjPn3+XrF61WnW/yU0glR/c833p2TPL9Wem9gH/UVenO5Y9VvaBl8I7os9o5HbQXq1OGOqO5FNDZFraJaO+NFMe/jw4o77tMi3h1lRuuukmmTFjhqtB4Ib9+/dLeXm56l4YEORAtA5m27ZtAoFGTUGdqFvTWeFgtmzZoiIgPHvjxlJ5+KFH1QKUmvbG+p7pM6bJvff+QIUH2oIjTCGSpyl9+/ZVS7pgIAGsNeKMJvaBdqJO1K3JZMcAQuvMTdqMdkD7btCgQSoHY9Jm1J2Tk2P9aQr0x0D4mgIdr0ceftSy7fYu0DZ74onfS3aO+2DTBGt7oKkRqsQ7oZ/DmWvtA/5DO9BEbtKOHTtUAwkMjCGfoyGgaD41RFDy/02ukun9qsSjlhp0fupAwCPPbcySP6xPtS5A9v6xu9Jk/AgozLbOLPx+j/z6+QZ54XWnTMu8efPUKsWRzlMO1yI4jVGjRqlUaGEIJSUlolUphqFBQ0hDWCaJcHiP0tLN8tijv1c5xtZ9ifb/1cxZM+RHP/qhqpMgQoBzhiCnpsCBah2d6RnkWvtAOzHaXr9+vWpwALtA3Vr70Crnoh0QANSq0GLUijZrHB3qBoH3799f81msqAYSOpqCPvDYo3+Q0tJNmtuN7snqmSXPPPOk5ChIxdQ+oCSsFbCNlX0AjIqKOJC+nzO4Qb5aVCE5qXXqU0/sL+kPeGTX0WR5aG2mLN7TeCBxYoJHrj43Ta6/SKR3ljmx+PwiZXtEfv5kg3y6rjmc5Hkqof2HpOLEhKTixIOk4sSDpOLEI2Zn1KcnBeT8gT45vX+N9Eh0l1C3mwW5yIN1ifJGWaq8uydBaoPUp3ukeeWSL6TKzMkiPRrFi1UlEBDZW+6RV9/zyQcra6WuvlmUkqRCUnEzIpIKSSWajZBUOohU8JgEjwjOVjEtcPmILHxhBIkRsVhrsYZTYCAWHA/i9zsrJamQVNzsk6RCUiGpdPL0l1snjafrJBWSips9klRIKiQVkoqbn2i6TlIhqbgZC0mFpEJSiQdSSUwU/8CBUtuvv/iT3PfsB3+0hNpaSdlRJp49e7FPrulSQrJI3uiA9BpaL4lJfjdf0HQ9IB6pq0yQ/RsS5dA2EX/QEg9JhaTiZkgkFZIKSaWzScXjEf+woXJw6qlSldVT/IZ7gL1+v2SVl0vPxe+L59jRoh6vyMCTAzLyggpJy24Qj8fsBEi/zyNHtqfK6r+nW8RiF5IKSYWk0iDcUuxmBZGvc6HeiU1sdn95vVJ15plyoKDQmFDs5nkDAcn75GNJ/eQT658SkkRO/kaN9Bl51JhQ7DpBLGv/mSVb3m+OnEgqJBU3d8JIhZEKI5XOjlS8Xjl84UVyMD/frb9GvZ63coWkf/hhI6kki8y4o1IyB+gyziNVvO5fmbLxrWRHpHLzzTfLzJkzVW3du3evlVWvKUh+LCgoEE1GLBLykA0LCQxNQVIb6tZkxCLhqrS0VJ3MuHHjJvndI4+p79e0174H7dYk5OF+j9cjXoSoinLqaafK979/hzqjHklzSOjSFCTj9e7dW3OrleQHrDXSKyb2gYcjgQ9143u6lVjaR1pamqXmoMmYBg5oszb5sU+fPurjuiGdg2RkTQF2jzzyP1Iai4z6nlny1JN/VGfUm9gHZHmSk5v9VbR3jZV94JlVVVUCxQ/4KbeCjHrt2Suoa8+ePVYia8viyKiXdiOVlZL+4QftSirr/5UpJS1I5ZJLLlFrf+Xm5go0hzQFHwAaSVoHgxGx1oDgWFC31sFANkFDQHivNavXyp133qVqtwaH4HvOOPMLMnOmThIHGmva7Ora2hqLJDRGD2eIc7GRxKcp0KLSan8B4yFDhqiwRlvRUbXaThic4DtqpXlQt0YuBgRkYh+QEiorK1MRBdoMPDQEhG9x8OBB9aCtZ8+eagJCH/ze9+6W1avWaD650T3QxfrhvXcJ5Frciql9YPCjlW4ysQ+QPPyHxj7wTnhH9BlNgT2j3dqBRCSf2qVJhccJO00lluepXHjh+XLOuWdpbFMwaoWInaZAcgXSK1pSwUgbTklT0EHCjaTC/RZOA/IomugUnQ4SJiakgro1gwMTaR5K32usIPI9VCl2YhOTkx+7WqRCUiGpRHMrJBUnOhAX3Lhxo2okisgbRKiJruypkF3HNue4uXpEsoiwNAWRym233SmrVq7S3G50D0mFpBIy/UVSIamQVEaqoivgRFJxWgtJhaRCUnEZh3H6ywkQIxVGKtG6DEmFpEJSIanw5McgG+CaitFsV8jNJBWSCkmFpEJSIam0jUmCfk1SIamQVEgqJBWSCkll/Xr1luLMzEx17gl3f3k8woV6LtRzoZ4L9a1lGUYqjFQYqTBSYaTCSKW1HMI1FRfk4jxS6RiZFkYqjFQYqTBSaS3LMFLpoEil4pxzpHzoMAkYKhTbzYOgZO5nn0rasmXWP0FQcuo3qyV7+FHjUx/tOgN+j3z+YpZs+q9TUBIyLRMnTlTZFLK8TWVaNFIIkLEwlWmBDIdGpgUZ2CYyHGtWr5E777w7JjItc+ZcJOdfcK4Ka2S8Q8JBU6BNpE2aQ32mMi3I2NcUJPmZyrRoZHzwbFtORZNICLuIlX3YMi0a9QJbOsREpkWrXgBZlLy8PM1nsWz5e3feLatXx06mRaPQYGof2M6uVVyIlX0AYEgamcq0aOwDdUfyqU6ZFo9HfCNHyoGTT5HqHj2MiQWE0uPIYem9eLF4tzXq1HsTRIbM8MuIsyskJavBmFhAKJV7kmX1CxlyoLTZDmHsFJR09stYCkp+9Ws3yLXXfknlCKADpSUKOBitpAseHktBSWSbawYSrRGU1GayU1DSaWKWoOTD/2OJW7Z3gfR9LAQl4ZsgGqvVA+zegpL4aklJ4isskKNDhok/OcngUPmAJFbXSFppiXi3bYc0a5MNJKaK5J/sl9wxdZKUgkO63BUz8eNAwCM1hxNl52fJsm+9iL+5Skvobt68eTJr1iyVrUEVFUrFmgKnAYkKjVFAB6qkpESqq6s1VVvZzyNHjlQp/proQOHhpaWb5bFHf69yjKrGBt30tblfleuv/7LqZ1CDhnChpmCUqFXOxQgKOmHa6IPS984vgFFrYWGhSnoFo2zom2nFBfv27asWEUVEg8GBpqAPPPboH6S0dJPmdqN7eJ6KE67YnKdiPwNTX/afyWeCvLL91+J3UEK3ZtTwZ1JQpb+x2uBCUgkFkaTixISkQlKJ5mpIKh1JKiZOv5PuJamQVNxMj6RCUiGpdPYhXc5YwK3PRrgeaWoL0U9rqwytk6RCUnGzJpIKSYWkEgek4vEkiTdpuCQkDhb8b5PiD9SIr36z+OsxX9q8AOJJTpGkkZPFM3i0BJJTDKoMiLfysPhKPpOG7Rsl4Auqk2sqIThy+ovTX9E6F9dUnOhw+qtDpr88kpA8SpLSZojXi4OQTEOLgPh9+6Wu+m3x129tbLE3QVImzhCZ9UWRrBzjHWUev088e7ZJw4InpaGseQcIIxVGKm6jE0YqjFQYqXR6pJIgKT0ukoTkolYQiv35AlJf85HUVy+2/sGTlCypX/6e+IaMPrZS7+YKQq97An7x/+dZqV+2sOkiSYWk4mZJJBWSCkklDkglNfOL4k0c6tZfo15vqPlY6qrfOUYqKZL89Z9KIG9Qm+oMvPlXqf/g3ySVKChy+ovTX5z+0rsZTn91yPRXgsSCVFK+/lPxt5VU3vqr1C8mqUTrMiQVkgpJhaQSjEBFRTeNVGJFKjfddJPMmDFDZUVIyCsvL1fdi+RHJOQhu9mtICEPshqQwNAU1Im6tZIdSPbTSLrg2Vs2b5EnnnhGlfyInKHExCT1stklF8+RCy+6QPOKUl5+QHbt2q26Nyc7W0YUjbCSWTUFSayVlZWaWwUJeRoJDlSGJD9grc2o19oH6kadqFuTSAj70MrFmLQZ7UByG6YENVibtBl1Q0crMzNL9V2guIDvqCloxzPPPCdbtzQqdLRngZrDE0/8XrJzsl2rNcEa+MI+kOisKejf2n4O6SbUjf9qCo6Q3rFjh2ikV1JSUixZKI194NmRfKpTpkW6VqRy8cUXy4QJEzTYWlpD2dnuxmM7mM2bN6s0tGwDwgfRFBjQpk2bVEQBwxk+fLjagCorKmXd+nXi97srFqSkJKuzq/Fe//jH/8q//tUcKUZ714Dfr2oD6jjhhLFy7XXXqEgW90PSJSMjQwO17N69Ww4dOqS6FyQPrLUDCXxDE+0v1K0dSMTKPqBCu3XrVpWDgUNEm7UO5p//fFGef/6vKqwD/oCKYFEZnCHarSFk1cODbgIR/uCe70vPnu5kaGof8B8m2l+xsA+b7DGQ0BS0F+3WEBDqi+RTuzSpUKXYaSoYwUMjSWMUIEHIxWgcHZ7y5JNPy3PP/lljm0b3TJgwXm648TpVO2wC10YfPKPe+SkwatVqkEGiCFJFWvv405+elycef8ro23f2zVQpdn6B2Ejfd7FIhaRCUonmmEgqJJVo9kFSIamELNSTVEgqJJX4OE+FkUqzJWKqrri42Jq20xRMNSIq1KyTmIrMdv5xwoxULBvAuseGDRtUc6KYHhgxYoSkpaVp7Meah0fdmgVhzO/D2DTz/Hg4p7+cn4CRCiMVRiqdfUY9SYWkEqEXck3FORKFLLx2ITZWI1EMNrAupt1lxDUVp3Fz+ovTX5z+comFGKkwUolmIiQVkko0++BCvccjXFPhmgrXVBipqOadw9zESKULRyqxkmkhqZBUSCokFZJKZATiYqE+JWO2JCSNaKOg5BKpr37felNLUPLa74tv8Ki2CUq+/pzUL32jCT3kLJBUSCokFZIKSSWuSQXS92MkKW26eL3IMtVJZzS/EqTvy6WuepH467c0/jOk7yd9QWTmZSKZvVsnfb+3rFH6fnuJg1S6YkY9dn0ha1UjvWKaUV9dXW1JxmiSH5HcppWLAehPP/2s/PlPf2lt/434u4kTJ8jX5t6gSrLDQGLgwIExyagH1sOGDVPttMOWUa3iAl4cC+qxyJg2tQ/TjHrgoU1+RDb9U08+0+72EcsKj5eMeqhQaJQRIDUFuRiN/8B3UWbUI5hIFm9SoSQkDTM+pCvgr5aG+o3HzlIJPqQrVZLHTBHPsLESSE5V20lAAuKtOCS+9cukYdsGCTQ4D+mC9tfMmTNV9e3bt08OHDigutfW19HsqoGDgSM32ZOu1e4B8cB5abYf48VwCJNW2wk7l7R6VKj71Vdek//8pzlSVAGpuGn6jGly770/UO3Rh7FDMwoieZrSr18/6dWrl+ZWi+SBh0Z6BY4WDldjH3i4yUACBIS6NTkLpvaBbe+wDw1RAAfYnlYe5fXXF8or/16gwjpebrK0v578g+QotL9M7QN9HAM3TYmVfeDZVVVVUlZWpiIKaMNB+0tjH6h77969YfUUW8i02BAgQjGNUuzfQncqjPYUBAMt0UCTegPHqsJ/nXXyPJVQc8XIq7CwUD0qQb6M1mksWPC6LHzjTU0fMbpn5qwZ8qMf/VDlREEqcPyHDx9WPYPnqThhiuXJjwsXLpIFr76m+i7xchOl751fAqRSVFSkJhUM8EAsLUsEUomXzx65HSQVkoqblZJUSCrRbISk0oGk4pFj/2cSVFiKoggsGv8vfEG04uYKWly3qgqtj6RCUnGzJJIKSYWk0unnqYikeFJkQvpYGZ0yUlK9qXoSCASk0l8lq6rXyvqaEqkP1Dd9TxBASnoPSUpNVU3NBBuC3+eXuuoqqcN5JUFTYCQVkgpJpcGS/NGsAwErTn85LYaRSgdEKl7xyMk9JskFWedI78ReVrxiUvwSkL31++TFQ/+WdTXFx37qkbSMDEnL7Cke5cEyLZ/pr6+TyoPlUl/XfBAWSYWk4mabjFQYqTBS6eRIJcGTIF/N/rKMSx9rTCj2x8PU18LDb8urRxp3CsH5Z+X2lcRk3SFWkYzg6KFyqa5s3vVDUiGpkFQYqbjZAEmlk0kl0ZMgN+d+TYpSCtvyreSdivflxUOvNJFKr779xJuo214X6cHVhw/K0Yojjim1efPmyaxZs1RtjbRTIdyPsaUO6sCaLYHYPVVSUiLIEdEUbEOFCKBGedhU5pq7v5xfgJEKIxWSSnchlcr35cWDJJVwBk1ScaLCLcVOPEyOO8Cgg2sqmqFc+Hu4puLEJSZbitstUiGpRLR0kgpJJZobJKm0niRMf0lSIalw+sul13D6i9Nf0UyEu7+c6JBUSCohpDJ37lyZPn26aoBy5MgRwZ+mYE2lb9++6ixvSMBoD2yC/Abq1kghYL1mz549Kp0wvFdKSor06dNHtW0bUyfIhtVm1L/73/fk/fc/1MAnSUmJkpyiW0MrKBgu559/nng8XkXdjTItkJ7QFGgT9eypk2nx+32ydetWlSQO2jp0yGBJTNK9Y0NDvVW3BuuU5GSZeupU9XqeiX1AkcDvD7QUpwgLZUN9nWzduk38Ab8Galm6ZJl88MFHqntNbsKGnL598yQlRSfvlJKarFqvRBtAsvPn3yaQa3Er+HboLxrJJPRt2J5m3RTPhQQMvqPGPkz8B+qGntf+/ftVMi1YQ87NzVX5D9QNZYtwkkmOjPquNv01Z84cGT9+vJs9WNehAwWHqyn24rtm/z+MvqCgQDAfqSkwSizsawUlcVSx1jhxCBP0mjSCcDAgSLpoyA3vBWe+a9duzStKnz45lvCjpnz44RK5/74HVXigPs272c+1VIEMtsWb1W223V5bN6TK5995m2Rk9HCFDw7GxD6Ki0vk9tvvlLraOte6TbGGPWucourBQTfB9r9x01xLD82t4HtDu8pE723Tpk0q27OPDdfoveFbb9y40XLomoJ3xHfU6r0VFxer2oxnZ2RkyJAhQ1REgfai3VpbjeRTuzSpUPreabKxPPlx165d1mhKU0DeUEbVlPfeWyw/+r8/UXcSTZ1d+R6Qyl13zxdMZboV0+OE16/fIN/61nfUpOL2/I64jne8Zd5NUlCgIRWP5UC1pGKy0QEOH7s2tTtC4fhNRGax21RDKqY7Qjv9PJWuFqmQVEgqHeHYOvIZJBUn2iQVJx4klWPJj7HKUyGpkFQ60uF3xLNIKiSVaHZGUiGphNgH1mmQW6BZ8DPZXooHcfqrI9x+bJ9BUiGpkFTCIPBOB+WpMFJhpBJbF9/xtZNUSCoklXCk0kEyLSQVkkrHu/3YPpGkQlLpVqQCQcmvZF8jE9PHtVpQEkrFbxx+S1470nhKoCUo2SdPEpX7zCMBGk5QkqRCUomti+/42kkqJJVuRSqQvj8xfbxc2PM86ZOYbUwsfvHLrvo9lvR9cU3pMWw8ktqjh6RD+j4xsVW91FdXK1WHIH3fvL8eZEVSIam0yqDi+EckFZJKtyIVvEyyJ1lGpxbJiJQCSfHqMoZtEKp8R2VdbbGU1m6WhkBDEzYggOS0NElKThWP1yxpzO/zSV1NdSOhtDiki6RCUoljfmhV00gqJJVuRyrBL2R6SFfkY4Rb1b+i/ghEdckll8jEiRNVlSMhT5sUhczg7du3q07UQzsgsa5JikJDkXm8bds2VbIfkqGQIaxJikLdSLbasWOHKiMWmcGoG+3XlPLycsGfpvTs2dOSe9CUxe9/ID/72X0qPDT1dfV7srIy5Yf33m1lQrsVU/so3lAs3/3ufLWkkNvzO+I6dkB++9vflMIRBarHIctbgx0qQz9HX9TsxERGPfqLRt0CGenwH1rpJtSJujXqFib+A+8IKZr+/fur+jnai3ZrM+oj+VRHRr3qq8XJTXCGN998s/o8FWSDQ6NLU9BZIWGikWSAYUIaxeQ8Fci6aIwTxg7ZBI3R472QhY2MYo1xwoBQt1ZaA3plWqIA+UDWRVNWrlwtTz35jLodmjq78j3Z2dny1FN/lJ69erq+BuyitLRUNfhBZdu2bZff/uYR9f2uDeiAG5KSk+SXv3xAxo8f5/o0OMOysjJLk0pT0AfRFzX9HM4c/UUj3YT+h3qhxacpqBN1a6Sb0Gb4Jo3/wLORZgDdOQ1RQGpq+PDhKv+Bunfv3m3pirUsYUnFI1hdwZ9ZQaQSECzVB0J+CKC1o+LgHwMM+y/433nyY+i3iaVKMUY7IBZNgaGhc2vKqpWr5emnnyOpHAMrOydbnnnmCUG051ZMZEZsUnn4oUdVjtHt2R11HaTy61//Qk0qcKCHDh1SNc9E5gYOf/369Srs4OuKiorUeoAgFdStJRVIumhJBYKP0DfTkgrarRmUAuBIBx+GkEqipMhgGSf5MloSRSeSaH1Bj0htoFK2yWrZKRvEJ/VNHxZTQ0UjR8iQwYMkMSlJlDMu1hIKFGlLijdKWdkOB+gkFZKKynN0sZtIKs4PRlJx4mGaEN3ppILoZJhMkrFyuqQGsox3fyFCqfKUy3J5TXbJBgsNsN7YE8bIpEkTrPk90wKGxcjj3f8udqjkklRIKqa21BXuJ6mQVKLZaZcjFa8kyGlytfQPjDImFBsIEMt677uyOvCW9U8A4aLZF0j//rqpk3CAglg++GCJrF61pukySYWk0hVIwrSNJBWSSrcjlZnyFckLDDftC477i70fyorAa02kctkXL5acnOw21fnRR8tkxfKVJJUoKHJNpU0mFhc/JqmQVEgqYRAo8XxoTYHZkcplX7xEcnJ6t6nTLlmyTJZ/RlKJBiJJpU0mFhc/JqmQVEgqJBXrJEeTLcU47Eeze8NU5pqkEhe80KZGkFRIKiQVkgpJpYUNcEtx63mFpEJSIamQVEgqJJXWs0iLX5JUSCokFZIKSYWkQlJpNwRIKiSVTiSV6667TqZMmaIyZ8iRaCVJsF1Zq7eFhyMTVpOxintjWTdygrTZsGiLVv4F9wIPrSICsNBkB6PeLVu2yqJF70jAH6rCEPJhPWJlmmvlLyqOHJHq6hqVfUDoNCc7W7wJCa73A7fXFvzHSsxt74JcriuvvFxS09wTj2HP+/buE5/fp2rGoYOH5IMPPhSfz6+63+SmocOGSMFwnT5XWlqqZGZlqaqHPU+ffpr06ZOjuj9e+rlmzTT4hbQ+xNR/mPRF07ojYe3IqEeeSntsKe6o3V9UKXb2s654nDB0mrZs2aIiZRj90KFDVRImQAbieAcOHFA5I5Am5C80OlDYlHHDDXNl967dqrqPh5vOOedsufCi81SvCn0zCChqCpwidLE0BA77gPadVjjWROYG9oENNhrhWDjb4uJiS+BVU2BzsD3NQNZ08w5Ur6HnpRkQor1ot3bwPWDAAMnLywsd+02ePLlpiEhSacQHowacI69RGcVIasSIEZKWlqaxH0s7iGfUN0NFUlGZTdzfRFJp/kQkFZJKSIclqYT6sF27dgmUnjUFktj5+fmaWy1FWUYqKqji+iaSCknFRoDTX2G6KkmFpBLNg3P6KxQdkgpJJTKpeL4ief6ue7c9pwAAIABJREFUIdPCNRVn5+aaihMPrql0XHBDUiGpRCSVKfJFyQ+Ma4OgpF8+97wja+Ud6xnYBXHe+edIfv4A1WJRuG6AOcrF738ka9d+3nSZZ9SHIkVSIal0HI04n0RSIamEJRUcHzxQxsg4OVsyAjnGxIIDug55d1tikvtki/UM6xS0wuFyyiknSWZmhjGxWNsm9+2X99/7wPpvU8M9HmGkwkglmhNlpNJxFENSIamEJRX8Y4IkSZ4Mkz4yWBI8SSIB5fmPnoDUB2pkr2yWA1ImfmloQhnRSn7+QMnrm6vSvLJ/iEO6amtqpGzHDtm/74BjqxsjFUYqbi6TpOKGUPtdJ6mQVCKSSvuZWWxrIqmQVNwsjKTihlD7XSepkFRIKlH6E3d/hYLDLcXNmHD3V6h9kFRIKlFJBWfIe3GHcuarCc6ACNQ2IgluaKVMnCbrCXumPSKVq666Sk466STVcCs1NVWVDYvK0E5k8GoyS9EOSM5r5VFQNxbUNVig7owM/ToUyFCTeYx3RHtRt7bU1tYK/jQFWcfAW1OQIXz06FHNrdY9kDHRSmAgQ1iTwGqZugHWqPfWW2+TvXv2qtvd3W+cc/FFcvnll6le08Q+UCHsQyspZGIfpv3cpC+iH2qlitAX4UM0We8m/gPYoa9oj3GHv0O7Nb4JdUfyqY48FdyY5BXJzxQZmN74v01KjU9ke1VAdlV6xBfELGhk9dEaqa2rl4Ch7JA3wSNpqSmSkprsaEosjxM2lWSI5XkqyL5HFr6mwOghyaAhOBAE6tYQJ57dv39/6dtXdyS0ifQ9JDUgraHtUEiURMKkpgwaNEhycnSaUSbRKYjqvp//QsrLyzXNOC7uue76L8vcuV9VvSukc8rKylTOC7YMm9YMgOBntm7dKocOHVK1Aw4X0isaaR4T+0Cbi4qK1AMrE5UNtFV7HhNAqKiokE2bNqmwhioI1EE0/gN179y5U/buDR1YOUgFgcmQLJGRvURSEgKtCVSkusEjq8tFdgdp7R2tqpajR2vVDqylRcDJZ2alS3JyUtOlWJIKQIUWj1bnJ5aksn79evUorSse0gWBSOh5xQOpAGsNgdfW1sn995FUgvvpdddfK3Pn3qhy5iAVrHdpCuyioKAgLkhFax+tIRXUrYlsQITwTdpo3YRUEHmADNuVVLwekZPyRPqlmxOKbSAIUEoOeWTdwcZ/wejh0MEKqa9v3g2mMaaW92RmpktaevOUCkklFEWSihMT00hF6zRIKqG2R1JpxoSkEqz95RGZ2k8kN1UhQx6FGUqPeGTNMXFYkMrB8gr1aDtStRkZ6ZLeg6QSjZBJKiSV1gzY2uM3JBWSio2AU/uLpGLhwumvUDcTqzUVTn+1h0vv/DpIKiQVkkqUfkhSIalEc9Oc/uL0VzT74PQXp79C7IOkQlIhqZhFP4xUGKkwUmGkEhdbijn9Zea84/VukgpJhaRCUiGpBNkAtnNy91frKYukQlIhqZBUSCokldazSItfklRIKt2CVG655RaZNWuWqmPs3r07bPZnuB9jTUWbaYuM9NLSUoEelKbYWbxI6HQrkKYoLi5Wb8fGlmJkH2sSCZEVjrq1GfX9+vWTvLw8tyZb15HctmPHDtW9mP4aPHiwqs12xvSRI0dUdeNI4+zsbNW9iFSAhzb58cEHfmWUUa/5JnZDtTIZuN+kXtwfq7q/fO01cuONX1FhDSUCZNRrCt4PNg3bdit4t23btqkVF2zlDE0ioYl9wH8gMz0lJcWtydZ12BxsT5v8iARFTZtRNyShNm/erPruSH4sLCxUJz9CD3Dfvn0h79iltxRfccUVMnnyZNWHg1FChkBTrITNQ4dUHxlGD6kRDUng2XDiqFvjzGGcvXv3VjsOkBAkTDSOA+1Fu7VOCfpLWo0u4KxxAsAD5KYlCdyflZWlUjqwOxR0ujQFOABrTTYxOv+7/31PjmoHEgkJkj8oX7xe94GEz9dgOVyfz13PKMHrtepNSEjUvKLU1tbIzp27VPYBpzUoP188Xp1WU48e+m8O56WRXbFfCjatIXtT+7By6A4eVPVFE/tAvWizVq/MpJ+btBl4QBUEfUZTYNfwTRr/gfoi+dQuTSo8pMtpKjz50YlHrKTvMSDA+otWrBJ6TZDW0Aw84Ii00jwm2lVABoOCjRs3qpwonBHarCFZ1L1nzx7ByFVTED0iOtUUODi0WSOUCscPHTkMljQFWGu19Uz1ABF5aAc0sbIPYJCZmamevUB7TWYvBgwYEHb2gqQSxvpMxeMQ6mqjIBPxOFOdH5IKSSWaMyWpONEhqTjxIKnwOOEQ/0FSIamQVBipBNtAXEQqE/uIDMwINJ6n0oqCmeANBz1SfEx9GkcCHz5UIXV1Ovn2SI/MzMKaSPPCF09+DEWKpEJSIamQVOKKVCB9n9cjIGN7e6RHkjmxgFCO1Hlk1QGRg0Hro7U1dVJZWa1a+A7XKZKSEgWkkpjYvNBJUiGpuI15uKbiRIjTX5z+itZnYjL9hQdC/j47VaRXskeUGz+a2tngEymvDciRusYTIIMLIpUG3GAogOzxiiQlJkpiknOHC0mFpEJS0R8yBaxIKiSVTiEVt44aL9dJKiQVN1tkpMJIJZqNcKHeiU7MIhW3jhov10kqJBU3WySpkFRIKp28pditk8bTdZIKScXNHkkqJBWSCknFzU80XSepkFTcjKUrkoppHpNWTiie1lRycnIERz1rCpMfQ9eBtMmx+GWnbynWfOR4uQekcv3118upp56qahI6q1bqAXVDSkIrYYK5SI3sChqKDGVoAmnqRodC3VrZBGT9avWGTOtGhrVWbwhz1dpsc9SJurUF9WrlL0zaDDxqa2tV39HUPkywNqnbpF7gG0v7QFY4/jQFycXAWlOAB2xam9lvYh+mWHc1+wC+8EvazH5gDL+nLZF8qiOjXltZPNwHg5g3b55aUHLnzp1GgpKQqNA4O3y0kpIStaAkOh5GlxoHbSLZgW/CM+qdlonRMEbFmmIifW9yiBuejc6H0aVWMBC2p7UPrcwI2pGenq4WDIRzRpu1g6W+ffsKjpzWFAiOIorUFPTzgoIClVaYLTgK/SpNMZG5MbUPiD5qHXSs7AMYVFRUyKZNm1QDU7QX7dYSeCSfSlIJY30mToOkEgrg/v371Sq0XfGQLhP7IKmE2gdJxYkJSUUzBOiAexiphILMSIWRSrSux0jFiQ4jFScejFQ4/RXiP0gqJBWSylZLvl1TSCokFQcCjFQYqbg5Dq6pOBFipMJIJVqfYaTCSIWRigurkFRIKtFMhJEKIxVGKi5OlNNfnP7i9Benv4JtgLu/3OYzgq5z+ovTX27mwkiFkQojFW4pdvMTTddJKiQVN2MhqZBUSCokFTc/QVKJghCnvzj9xekvTn9x+ktNI84bEalce+21csopp7Syhug/Q/0aeRTtfcFP0/5Ge19rADCp25bVwO4hTTGpW1Nfa+8xaYfJvWiPyf0m95rUbVqvCY7xVHc8tMW0DSb3m9xrYh+m97bm/nA21aUz6mfPni3jxo1T9ZUBAwZIXl6e6l44UchfaPSrkF09YsQISUtLU9VtKhiolezAw2N1nLBJxi/a0adPH8nPz1fhcfjwYdmyZYuawIcOHSrIwteUrigoaSLNY7J7CXjxkC6n1fA8FScePE/F4xGSitMoSCpOPEgqTjxIKiSVaIMxkgpJJcQ+SCoklWhOg6RCUiGpREGA56mEgkNSIamQVIZIr169NLOj1hEKWpVnHBsAdXGtcnlxcbFach7K5ZjmxjPcisn0KOrieSpuiAZdJ6mQVNzMhdNfnP6KZiMkFa6pOBAgqZBUSCqJ1uhZezgWp784/cXpL05/WWGx5sAmQMXpL05/cfqL01/BNsDpL7ehJ6e/oiJEUiGpkFRIKiQVAyIJvpXTX5z+cjMdrqlwTYVrKpkyfPhwK1nXrXBLMbcUh9gIIxVGKoxUGKkwUnGjzwjXwbxz5syR8ePHq2ro16+flemtKfa588gkdyvIqMdIAAfcaAp2nJSUlAiy9t0K1lIKCwvVaypYiN28ebMqOx1bI1E32u9WgMPG/6+9cw+uq7rO+LqSLPkpIxvZlgWWn7KNnxjbxDW2gRAgAWMmuB3DTJKmMwUCf3Qa/uhMMtM/+pppOp2hbabTzHSSUEoDNDzahocJgQQMmNiAIcHID8kPbEm2LL+wsWXr0flt6To61uOsc6UTLO63GQbse+8++3x77fXttfZZ39m92zVm+ho/frxVVFTEdRs+P3nypBFReCVxpkyZEh6T9LT6+no7evSo56vhcU7w8Bx6Yx/g4VFc4OL0Sd/eR0bpGzuJa0nt48yZM8E+GH9cS2If9NXU1GSHDh2K6zZ8XlZWZpWVla7vYhcoLpw+fTr2+/gElBy8igusQdaiB+uk9lFbW2stLS2xY07TPuh79OjRVlVV5Y5U6urqXPZB33351CEt03LvvffaqlWrXBOHc/G+ZhRHi3F6DsgxepyX14Dok749zhyjP3jwoMvoAQGpGCbaE+pCFPTtcTBJxpwliiNHjrjmBRFM5HM8Ywbrw4cPuxwMFy8vL3cTEDgcOHDAhXUS+2AcOC2w9m4kcLgeAkpqH2x8IHsP1owZPDz2kSUKyMLTeMcHJORpjJUxezZt2Af9ErF7GhizFj1YgwNz6N1oMoeeDQrjZB7BerDtg77ZSDQ2Nro2bSUlJYaclcc+6LsvnzqkSeXBBx+0NWvWeOwnOH4ckqfhNHjqylvoxG6HyfM0DI3HQD2ElbTQKS2V4iTFWWAAobBIPI1dJXpeHkPO7lrRC/M0Sd9HUdLrhKN4JNFOw+HX1NS4SaW6utpFhIwoibYeY07yRKhe0uXxFF3f0ftUeoIlUoliIlIRqfTnUkQqUXT0jnq9o77HehGpiFT6c6KKVBSp9GcfIhWRikglJrJVpKJIRZGK3vzoToAp/aX0V5yxiFREKiIVkUqcn7jwuUhFpBJnLCIVkYpIRaQS5ydEKv0gpDMVnanoTEXvqO9uA3r6y00pne8I1yPFUcBEKiIVkYpIRaSSgEi6f1WkovRXnOko/aX0l9JfSn/F+YlI+uuBBx5wFz9SVeotfqTCdtasWe7iRyQZkhQ/0re3+JE3yHlkJACGSMUrHocCAEWbnoppih8p5vJUHjOO5ubmUH3saRQ/Ir3iLX7ct29fkHbxNKqlx40b5/lqqGYGa2/FNHh4imO5OH3St7dimr699sEcesbMOHikGPvwqDkgQcOYPfZB36gioObgaVRie4tjsQvGjG3HNYpjkfzxKmeAMWvRU/me1D7olwp1T0vLPrg26S9kbjwySDxS7JVuou+GhoZelRGGdEX9+vXrbcmSJZ55C3IdHsOkMyYAx+hx5hg9WlceJ0DfLFIqzj2LFSdO3x4nQN84gmPHjrkMiPHSt8eZs6DAwzPmLLl59bkgN5yAx+gZK6+K9SxW+mNBoYfmaWAMHh7iTGIfXDvJPIIxWHsIKEm/WXLDoXuwTmIf9I02F3h7GuSGfXhsj7Fi0x6dNfpjk+KRdMmuRS/WSe0DnL1kn2Qek9gH98haYc14sMbfgYfHPui7tLQ0bFQubkOaVNauXWsLFizw2HHQtGE35WksaN5d7TFkjI1dCbpbnoah0beHsJJKMkilODoDkr6P4qE3P0bx0OuEo3hI+l7S9z04TKQiUulvYyNSEan0Zx8iFZGKSCUmNFSkokilPxNRpKJIJYKA3vzYc7koUlGkokhFL+nqbgN6R73nUKLrOyIVkUqcuShSUaSiSEWvE47zExc+F6mIVOKMRaQiUhGpiFTi/IRIpR+ElP5S+kvpL6W/lP5y00j0i4pUFKnEmY4iFUUqilQUqcT5CUUqilRCgZuniVREKiIVkYrHV4TvKFJRpBJnLCIVkYpIRaQS5ycikcq6dets0aJFrt9QTe/VgUIKYc+ePS6ZBSrqq6qqXNIhDJRn4+nbK8OB7pFHOoS+0R/bv3+/S2YB3aqpU6e6JGCSjJlxlJWV2cSJE13zgrRHfX29a8xsJCorK2306NGuvtF78+pAgfG0adNccjtJ7IOBoi1F3x65nSRYJxkz46C4De00jwxHkjHTN/IeTU1NrnlBNsSrE5bV8/LK7WAfXokg1iBr0aNuwdyxFj1yTNgHOCNB5Gn0iX141nmSMXNtpKnQwPPItDBexu2VY+rLpw5pmZb777/fVq9e7Zm3YPAYvqdhQEyyR2iOCcCRs2A9LU0DQocHZV6PASFBg9Ccx4CSOhgcOQ7d03AASOh4xoyDgYC8GlM4LhyYp7FYwcOj15TEPpJuJNK0D6SEvOKd4IDD9dgH93j55ZeHfz3txIkTQYzQ07ALxuyRQcI+6NcrOJqElJNsJLAPNmxewdEkG4kk9gG+aLIh3unZSKATxgbZs/mhbwR60Ti7uA1pUtH7VKLTqfepRPGQ9H0UDzYdXhVaNh01NTVuUiEyraio8PBE2NyRmvQ0SGXGjBmu6BTHyU7bG53ioGfPnu3aPLLpAA/vpgOlaa+wJX3Styd7kVQPUC/p8lhZ13f0PpWeYIlURCr9LSGRShQdkUoUD0gQMvRGKmQNenudiCKVXlYhoM6ZM8cVvhIW806LJO9TYXfkyc0SFrOD8eR8uQ2RikhFpKJIpbsNKFJRpBJBQKQSNQjSG5x7kJP3NKW/lP7qz04UqShSiSCg9JfSX3HEIlIRqYhU9DrhOD9x4XORikglzlhEKiIVkYpIJc5PiFT6QUhnKjpT0ZmKzlR0puKmkegXFakoUokzHUUqilQUqShSifMTilQUqeigvssGkry5kJ/okeLo4tFBvQ7qexzUf+tb33JX1PM89ZEjR1ykxSPFFFx5K+p5IilJRT19eyUZamtr3Y8U4zSoiPVUp1PcVldX5ypuA4ckcjHHjh1zV0yXlpYG6RXPmHn6i+pgb0U9xXhIxngahWfg4S1u89oH16ZP+vYWt6VlH1SleyumGTO2l6SiHtkOT6M4kRoHT8MuGDO2Hdewj4MHDyaqqAdrz+P94AAeXvtgvSSpqKdvr3145WLAi4p6r3QTdSpe6Sb6PnToUK8qJUO6TuXOO+90a3+Vl5e7HUxWu8drQKRZkDjwNHaXVP16DAjiYZI9BMS1qZXxSjJg8MhfeAqdkoyZcSCN4nUwvAMGaQ2PjAQOBkkXzo48jY2Et7oajHFeXgfDHHrsg3FCyl5nnpWLScM+2PhQye7BOsmYuUfkOrybNlSmvdpwWaLwaH9hH2wkvNpwYMw8eurAstIrXvvAkbNx8zT69DrzJGPm2qwVrwwS42Xc3o1EXz51SJPK2rVrbcGCBZ55C8B6HR0Tt2PHDpdRYGyzZs1yaRNld6307THkpJIMeklX1BSkUhzFA8e8e/dul9Ng00EBsGfTkd21evW8EHZlQ+NpkApjZscd17JRjVfvLUn6kE0HRcue6AOnvHPnTnf2AgIHa8/mMWntmt5RH2c13T6X9H1PsEQqIpX+lpBIJYqOSCWKB5EsZOiNVPraqCtS6WUVKlKJgpJE8I5folaL3LanUR3PmZQnJcNGgjSBXtLViWySg2a+L1IRqfS3JkUqmYwp/RU1EUUqilQUqegd9d1tQOkvz9a26ztKfyn9FWcuOlPRmUp/NqL0l9JfEQREKiIVkYr/fSBKf/W0FpGKSEWkEuNFlf5S+kvpL6W/lP6K22728bkiFUUqcaaj9JfSX0p/jQmFy57iYh3U66C+x3pRpKJIRZGKIhVFKnHbTUUqripvYBKpiFREKiIVkcoASAWZlsWLF7t6oHbCW2lL8Q+pE48MBxXH1GR4Km0ZKDUwSCF4ZTioPPZU2tI34SvaR56aD8bLuD0V0xxoJpFvAGfw9jQqpRsbG11jJoSfNGmSW6alqanJLT4JxsjteGU4vPYBBvTplcRJ0z5aWlrcMj5UeYOHxz64R/TempubPVNu6L151S2wZXTCPK/rxj6Qf0ki08I8etQtwIE59NgHY6bfJDItadgHk4FmGtI1nvQX40XmyVv82JdPHdLFjwhKrlmzxmXIiJ/hZDwNBzNz5ky3oOSePXtcRs+1Waz07SEKjB2JCo/R0zc6PxQHeg3IK9mRZMyMAx0or2AgDgbn5RlzdrGePHnSM41BmgdJEE/DmYOHdyPBHHo3EvRJ356NBE6Lvj3Oi/527drltg8EJadNm+YiCsZM314Hgw6UV88LAmLz42nYBWP2CkriFL2vm06KdRL7QKjSqweYln1ksxfom3k2mghKcv7i3UiwGexN721Ik8qDDz7oJhWcHAKDngaoaPF4nAaLjsXn2UllSQUNIY/TSKrzo5d0RWdX71OJ4iHp+ygeSRQJIPCamhr3pqO6utpw0p6WRLEiqR4git4oZHtJhXF7SaUvnypS6WXWRSpRUJII3vFLdi/sGD0NyRVvdMXCQNLFuxMVqYhU+rNBkUoUHUhQpKJIJWIVilQUqfTnRBWpKFLpzz5EKpmMKf0VNRGRikhFpKJ31He3AaW/PPmSru/oHfU9wRKpiFREKiIVkUoCIun+VZGKSCXOdHSmojMVnanooD7OT1z4XKQiUokzFpGKSEWkIlKJ8xMilX4QUvpL6S+lv5T+UvrLTSPRLypSUaQSZzqKVBSpKFJRpBLnJyKRyn333WerV692/YbaCSq9PY06FWonPAWK2SpvJFI8jT6rqqpcFfUUXFEN662o55HRyspKV3U6BVf07amYpk6FMXuLoo4fP+4uNOXNdEiveCvqGxoagsaZp1Hh7X31MDiAh7ei3msfjJP5o29vRX1a9sEjo171AsZMTZDHPrjH8ePHh389DUUEqrE9DbtATgg1gLjGWqRfnnjyNFQtwNqzzpPaB7IrnuLpNO2DvnmFtFe6CQWAJNI8ffnUIV38uG7dOlu4cKHHfoKEhNfoMaDa2tpEDsZbPctipW+vg0E2wWP0WQPySjJg8F5JBhwtVbmeMTMOpFEgCk/DAVAo6an4zToYiMjTICAkQTwNB4O0hgdr7AM8vNpOkDJYe6V56NuzkUgyZjBA9SHJRgI8vBsJHIxXsQJtOCR0PA27YMw4x7iGfbCpQvrH07Bn1qIXa+aQuYxr2AfSTWiteVpa9sG10UHzbiQYL+P2biT68qlDmlT0jvqoyUqlOIqH3qcSxQPH7NV7Y9OBVJGXVNDWg8Q9jU0HO3lPg1QYM8KjcQ1SIfLwCsfqzY9RRPU+Fb1PpccaE6mIVPpzvCKVKDoiFZFKBAG9+bGn+xCpiFREKopUutsAqWK9+TEuxu36XKQiUokzFaW/lP7qz0YUqShSUaQS40UVqShSUaSiSEWRStx2s4/PFakoUokzHUUqilQUqSj9FecnLnwuUhGpxBmLSEWkIlIRqcT5CZFKPwgp/aX0l9JfSn8p/eWmkegXFakoUokzHUUqilQUqShSifMTilQUqbilV0QqIhWRikglEals2LDBli5d6voNujYeiQU6o4oXSQuPXAERE7pE3spj+qYIzStLgp6XRxeLcTNexu3pm/HSt6clGTP9gTN4expSGYzZ28DaI3dCf8hOeLS8+C4YJ8GaOfTYB32DNeP2zGMSrJOOOal9eMfMPYJzElkSr33QN/bhlQhCLskjtZPLOh9q9sE9goVXQiqJfdB3Xz51SMu0pPU6YZzW7NmzXYJwTMSuXbvcjhGHS98ew0/yHD2TjM6PV88LB7Bjxw6XY0SygzF7nTk6UOh5eRqSGkhreB0uIocnTpzwdB00j7x6bzitmpoaFwlBEkiYeAUDcbj07XGMadpH0nfUYx+eMTMZ6EBVVFS45qW5udmIIj0NrLFpbDuuZXXCEDT1NNYgdu3ZbIIDeHj03hhzdXW125knsQ/GjO15/AcYJHmdMJuIWbNmuTfI9fX1veq9iVR6sb4kTiNtUsEZeQTvuA29TyU6mUORVJI4jaSbjqSkgu15o7G0SIXNBsKWlwKpJNl0DEVSIaJh3N6si0ilD1btbUcjUomiwk6O3VEakQrS9MjIK1LpxFykErU9kUoUjyT2kTRSEalkMpZW+kukIlLpL32SxD6y5w3e9FcSp6FIJTpLaae/FKlE8VakokglYhFJzlQUqUQXk0ilJ+Uq/fU7TIbqmYoiFUUqPVa2zlR0ptJfhKUzlZ6ppCQH9YpUFKlEEOgrVNOZSnvsgzKKVBSpxBmJIhVFKlkE9PSXnv6K8xfhkUsd1EedRlqPFOtMRQf1/S3IJPahg/pY19bT2HRQH8VE6S+lv5T+2mdp1ako/aX0l9Jf/XgYHdRHwblUih+T7ET19Fd0DvX0V88Fn6T4UQf1mYzddtttNn/+fFeMQxWvdwfDs/FTpkxxVa1iyFSPeyptGSi1HhTleWo+cHRUHnurmjGKyZMnu2o+qOKlb4+kC46OMXuLoqh4p6re04iuyMd761QaGxuDzI2nlZeXW2lpqeerochv//79LqyT2AcXx/mDtaeQME37QFajsrLShTVjBg+PfXCPZWVlNm7cOBfWJ0+etKamJtd3wRqb9kqNYB+nT5929Y09s849a5G5Yw49hciMmfXiqdRP0z7om7XS0NDgwgOFiCuuuMJlH3TYl08dsmcqWcC8zpzF4V0g9I1heB0d3/f2ne3zUug7jTFnsUjStweL7KpIMo/eOew+f2mMO9unp++haB9J1ktS+0iz77Sx9tp1WvaRFOskePTX95AmFUK7s2fPulhYXxICQkAICIH0ERCppI+xriAEhIAQyBsERCp5M9W6USEgBIRA+giIVNLHWFcQAkJACOQNAiKVvJlq3agQEAJCIH0ERCrpY6wrCAEhIATyBgGRSt5MtW5UCAgBIZA+AiKV9DHWFYSAEBACeYOASCVvplo3KgSEgBBIHwGRSvoY6wpCQAgIgbxBQKSSN1OtGxUCQkAIpI+ASCV9jHUFISAEhEDeICBSyZup1o0KASEgBNJHQKSSPsa6ghCX6LNSAAAOlUlEQVQQAkIgbxAQqeTNVOtGhYAQEALpIyBSSR9jXUEICAEhkDcIiFTyZqp1o0JACAiB9BEQqaSPsa4gBISAEMgbBEQqeTPVulEhIASEQPoIiFTSx1hXEAJCQAjkDQIilbyZat2oEBACQiB9BEQq6WOsKwgBISAE8gYBkUreTLVuVAgIASGQPgIilfQx1hWEgBAQAnmDgEglb6ZaNyoEhIAQSB8BkUr6GOsKQkAICIG8QUCkkjdTrRsVAkJACKSPgEglfYx1BSEgBIRA3iAgUsmbqdaNCgEhIATSR0Ckkj7GuoIQEAJCIG8QEKnkzVTrRoWAEBAC6SMgUkkfY11BCAgBIZA3CIhU8maqdaNCQAgIgfQREKmkj7GuIASEgBDIGwREKnkz1bpRISAEhED6CIhU0sdYVxACQkAI5A0CIpW8mWrdqBAQAkIgfQREKuljrCsIASEgBPIGAZFK3ky1blQICAEhkD4CIpX0MdYVhIAQEAJ5g4BIJW+mWjcqBISAEEgfAZFK+hjrCkJACAiBvEFApJI3U60bFQJCQAikj4BIJX2MdQUhIASEQA8EMgVmlvn8AZOZO/eqjqF5Wx3W2tpm7e3tQ3P4GrUQEAJ5jUDxknYrqG773GGQmTWreoiSyuduLnRDQkAI5BECxde3Weaas5+7O05EKplMxjo6ohzE39Eu/vtLAanexpb9u0t1zJcCbhqDEBAC6SOQ96RSVFRkc+fOsX379tvJkycD4mPHjrWZM2famDFjbOfOndbQ0HBJkcvUqVOtoKDA9uzZE8ZVXFxs06dPt0mTJllT02HbsWOntba2pm89uoIQEAJC4CIE8pZU2NlfdtllNmPGDFu9epX99KdP2f79+23EiOF255132vDhw43vcLbxxBNP2pkzZ3IyHvooLCy80FdbW+65xhEjRtiVV15hq1evtvr6BnvhhRcCuSxfvtwWLlxgp06dtokTJ9izz/6P1dXV5TRe/UgIDCUEWF9sqlpaWsI6GzZsWBg+m6rB3lix1rgGDb/AWubP/H/SjAZ98Zukv+Pa3cfBGAb7/LW7z2J8XCPJONMmleqyq6y4YJhtP/oba+/43dlzQabQRhSO6NN82zrarKXtrHVYbicjsekvjGHlyj+wZcuW2ahRo+yRR/4jkEpV1RS75ZZb7Jlnng1ALlmyxDZv3mwnTpzIaa2NHz/err12uZWWjrXa2lrbtm2bnT9/Pqe+pk2bZrfffpuNGzfO3n33XfvZz56z0tJS+8Y3vm4vv/wLq6+vt8WLF9vBgwdt9+7diQwhpwHpR0LgM0aAtfvQQw/Zww8/bNdcs8S+/OUvB0e/efPbtnHjRvvkk08GZR1AVqy/RYsWWlHRsLBp++CDD2zOnDlhrXGdJK2qqir4AdZsklZSUmLz5s2z2bOrw88++qjGtm/fbufOnUvSTZ/fhVDwWVdffbVVVFTYsWNH7d1337PGxsZALp422KRSXFhiV46aYplMYaCDu+d9zQozBfaT7f9pbe1tlrEOa/y00cpHTLDvXvdXVlw03CCQbCvIZGxE0UirPbrT/u7Nv7RPzuXmy2NJhQtiKKS4vvnNPw6RyoEDB2zZsqW2YsUKO3LkSIgu9u7dF0gll0nDAFas+ILV1tbZ8ePHbebMGcEgIQTvBHWfRBYLfa5de7t9+umngVSmTLnSNmy42w4dagyL59SpU/arX70Wxq8mBD7vCJSWjrGHH/4ne+utt+zEieP21lubw879qquusrlz59qjjz5qx44dGxAMrLulS5eGPtgYEgFNnjw5/FtSUmybNr2ReNNJeh2fwkbW28ierFp1nR06dDj8Dv/EJnjcuPH2xhtvhGhtIC1LKBDn7t21wZfgb6qrZ9nHHx8IROqJWAabVGaMrba/ueEfrf6TA9ba3mrDCorDbZ5vP2eFmUKbXT7fvv/29+z1A6/a4glLw991dEUwJUXD7drJK+ymGbfbk9sftR998G8hWsmluUiFjkeOHGn333+fPfXU02GH/6Uvfcmuvnqxvfrqq8Hxr1x5nT311FP28ccfuwDtPlj6ZkdSU1MTfjt69Ghbt+4Oe/LJ/845WmHi77rrq8GAIBUWDn8mAtq7d6/ddNNNtnXrO/bmm2/mRFy5gK3fCIHPCgE2hU888bht2bLVXn75ZduyZYudPXs2bBjXr18fzkN/+ctfDmh4pMnJALC5pG9IBmfO2eaiRYvshz/80e+FVLjeFVdcEe4xuyktKoLwloW1z6Z4II3z5RtuuCGcIxOZEPWBKffLZvv11ze5iGuwSWXW2Nn24NKH7KW65yLpLu41YwW2onKlvXnwdXtx7/9duP2MZWzCyAq7dfpau3PuH9kLO5+1n2x/xD4533lunkvLiVSYlOuuuy6EuU888UTIXd5zz932619vCaGuh6UvHmz3J8tg/Xvuuccee+yxnCKfAOJFpMKZEETFuc+hQ4dCeoyd1IsvbsyZuHIBXL8RAp8FAjjC+fPnG84VuycdxIaLdTJnzmxbtGixPf744wMa2sSJE23SpIn2m9/8NkRB+AWiFK5t1mEHDhxMfH6TS6Qyf/48O3HipE2YMMFmzZoZ7on7PXnyRDhX4gGdgTSIeMOGDfb888+Hc+bq6tm2d+8ee/HFF23VqlX2yiuvhgxJXBtsUhkzrNQWli+xBRMW2diSsoA5dMI/x1uO2paDm63x0wY7ePp3UV9RwTB74Opv24IJi+2H2/7NtjVttTOtp+OG3u/nOZFK55lKld1xx1p7++1fW2FhQThTIYqBuZOQChM/Y8b0yG8wQnY87733XthZ5ZJSu5hUeFLt7rvvtj176kJYfN11KwMJspsZ7AO8Ac2IfiwEfo8IsNZuvvnmsMbYbQ+klZWVhSdEyQDksmZ7u3YupMIGkqiJM5TujTOWw4c7U2IDaWB26623hvQ8T8J+5StfsZ///OfW2nrerr32C7Zp06YQqcW1wSaVylFT7BuL7rURRSPC2Uhbx3nLZApC1HK+7bydbz9vz+961rYeeruLcMyGFQyzby//rrW0tdg/b/l7a7eBF5O7SYU85fr1d9kvfvFKCJUBFlZmVwCJ4JwhgKQOmolmx9Tb2cb1118fDJ2cZdIGqXzxizdaS8u5MMn8GWO78cYbrLi4xOrrD9rGjS/l1HfSsej7QuBSRIA1QaqIrMAPfvCDAZ8vZn0CmQzOVJL6gsEiFdLnt9xys23dutUaGhpDt5WVlWEjyYNFufiT7mMDNyIwoqD33tsWHDT3ii9D5QOy8dz7YJPKyKKRBrFAFN9d/bf2St0LNnHUZDt0qsFe3feSFRYU2dGzzdbc0nThdvjuny//jp1pPWP/svV7PjPtDICMksWuMsVsUBT+6yYVrobRdH9sjhwijxbTOY8Se4C8eNTz5l1lR440h5TUxRNHrvK1117L2QiyjzVm86oYA+TIfTDewX6U0jcj+pYQ+OwRyG6yeJjlueeeD09m5bJ+L74TnrLkiSjOVvft2zfg88pcIhXurazsMpszZ274L/dFREHqq7n5qH300UcDTnnjWyDkadOmWknJcDt3rsWOHTtul18+3rZtez/4s7iMzWCTCnNRXFBsq6640f7s2r+wv37tO7aicpUd/GS//W/t0za9dIZNHFVhb9a/bq0dnU/Wukil68ni3h4wpvT9d3/f+adEpJLGUkiTVNIYr/oUAkMdAc46rrzyyvB05CuvvGI1NTsGhVDABYcOsfBk6K5du8LBeC5PcGYxzoVUsr/l7CNbj0M6btiwIlu2bHl4WODDDz8c8KYyW/uT3WxzDerf5s2bb++//741Nzf3i+tgkgoH8RNHTrIvVt1iN8+83Tbte9WerHnMvjbvT2zsiHG2tX6zLalYZifOHrd/f/9f7Vz7WZs6ZoZNL5tla6u/arXHd9n3t/5D76bd0UUc1AuFE5pu9NKdaboYRqQy1D2Exi8EEiDQ+Xhtld1775/aj3/8SHD8cTvqBN2Hr3INCpBXrlwZ0mAQS65R0EBIpbdx8xAQNXdELpy5DHa2gnsvLy8PDzKRdm9qauoT38EkFQoaV05ebV9fdK89U/O4vbzvJWttb7Fryq+1O6rvsqLCopDi+ulHj1nN0e3h7OSWqWvtD+fdY8MLR9p//fZH9nzds1HIOiycsGQ6OiwDsXR0SnLx/23WYYgsmxVcOIfh70mHXSAVGJ2Kc54nH8zW1tZu77zzTp8pLJ6Tnz59Wi9PS2SssnKyPf30M3b6dO9PI/CYcEXFpMEcbuiLZ81ZbGpC4POGACkgygGwbxz+QKKIOGw4LK+urrYPP/ytnT4d/zRUb/3xhCnFjwN9DLh73xSCUg5Beo61PtiNSBBigRA51+mrLmYwSYV7KC4oCYf0p1tPhToVGrUoJQUlwdtzYH+uveXC48bUsZQUloTvcVBPPUto3dNdnG20Zex8Y5t1tHSFIu0wByoHRC2Rn3SSTlalGIYFbAAZzMYuCFLoa6cCmbGr6a1lixT72knxu2x4O5hjJoz1PL0xmNdUX0Lg94FANmWDjQ92hHLx+LMyJu3tSKTkJvlBaikrgTKY+NAv48tVtSNuLB6cB5tU4sbk/jxLKl0RCjWQhe+OthGnxvZiM12n9hfYKPPZn6m4b1RfFAJCQAh8jhC4ZEmFaKM905nW4r+fdljB+6OtpbHdWh0SNJ/5mcrnyEZ0K0JACAgBNwKXLKmE85PONFhHe0cglaL3x9jZQ+12vkvVnYwW5zQjh4+08ZeNs/rD9dbW3m5EpSIVtwnoi0JACAiBwUPgUiUVCCUktdo6SaX10w4rhlQOd5JKqG+qrLI1y9fYiJLhVlE+2eo+rg2k8vrWTZaZUT2vg0BnWFFh52FOW7u1hV6dOVBqP4qLrDDmLIYcLk9aMCA1ISAEhEC+I1C8ss0yC6kXSeBvUwYt+4SXdbRbR3umM1I53WFFNaPs7FEq81utIFNgC6sX2O033G6jR40ODxmjdlz3cZ1tfH2j/T+oL3XSayq4TgAAAABJRU5ErkJggg==;" vertex="1" parent="1">
                    <mxGeometry x="10" y="10" width="405" height="520" as="geometry"/>
                </mxCell>
                <mxCell id="3" value="筆の太さ" style="text;strokeColor=#000000;align=center;fillColor=#FFFFFF;html=1;verticalAlign=middle;whiteSpace=wrap;rounded=0;fontColor=#000000;" vertex="1" parent="1">
                    <mxGeometry x="10" width="60" height="30" as="geometry"/>
                </mxCell>
                <mxCell id="7" value="" style="whiteSpace=wrap;html=1;strokeColor=#FF0000;fontColor=#000000;fillColor=none;strokeWidth=3;" vertex="1" parent="1">
                    <mxGeometry x="6" y="36" width="54" height="24" as="geometry"/>
                </mxCell>
                <mxCell id="8" value="" style="whiteSpace=wrap;html=1;strokeColor=#FF0000;fontColor=#000000;fillColor=none;strokeWidth=3;" vertex="1" parent="1">
                    <mxGeometry x="6" y="60" width="54" height="100" as="geometry"/>
                </mxCell>
                <mxCell id="9" value="←描画ツール" style="text;strokeColor=#000000;align=center;fillColor=#FFFFFF;html=1;verticalAlign=middle;whiteSpace=wrap;rounded=0;fontColor=#000000;" vertex="1" parent="1">
                    <mxGeometry x="70" y="60" width="80" height="30" as="geometry"/>
                </mxCell>
                <mxCell id="10" value="" style="whiteSpace=wrap;html=1;strokeColor=#FF0000;fontColor=#000000;fillColor=none;strokeWidth=3;" vertex="1" parent="1">
                    <mxGeometry x="60" y="100" width="350" height="370" as="geometry"/>
                </mxCell>
                <mxCell id="11" value="&amp;nbsp;↓描くところ" style="text;strokeColor=#000000;align=center;fillColor=#FFFFFF;html=1;verticalAlign=middle;whiteSpace=wrap;rounded=0;fontColor=#000000;" vertex="1" parent="1">
                    <mxGeometry x="200" y="60" width="90" height="30" as="geometry"/>
                </mxCell>
            </root>
        </mxGraphModel>
    </diagram>
</mxfile>